<?xml version="1.0" encoding="utf-8"?>
<!-- Generator: Adobe Illustrator 19.1.0, SVG Export Plug-In . SVG Version: 6.00 Build 0)  -->
<svg version="1.1" id="Layer_1" xmlns="http://www.w3.org/2000/svg" xmlns:xlink="http://www.w3.org/1999/xlink" x="0px" y="0px"
	 width="32px" height="32px" viewBox="-83 55 32 32" style="enable-background:new -83 55 32 32;" xml:space="preserve">
<g>
	<path d="M-67,56.7c-7.8,0-14,6.3-14,14s6.3,14,14,14s14-6.3,14-14S-59.2,56.7-67,56.7z M-62.5,63.2c0.7,0,1.2,0.5,1.2,1.2
		c0,0.7-0.5,1.2-1.2,1.2c-0.7,0-1.2-0.5-1.2-1.2C-63.8,63.7-63.2,63.2-62.5,63.2z M-75.7,70c0-0.7,0.5-1.2,1.2-1.2
		c0.7,0,1.2,0.5,1.2,1.2c0,0.7-0.5,1.2-1.2,1.2C-75.1,71.2-75.7,70.6-75.7,70z M-65.6,80.8c-7.4,0-8.2-3.6-8.2-3.6l16.8-6
		C-57.1,71.2-58.2,80.8-65.6,80.8z"/>
</g>
</svg>
