<?xml version="1.0" encoding="utf-8"?>
<!-- Generator: Adobe Illustrator 19.1.0, SVG Export Plug-In . SVG Version: 6.00 Build 0)  -->
<svg version="1.1" id="Layer_1" xmlns="http://www.w3.org/2000/svg" xmlns:xlink="http://www.w3.org/1999/xlink" x="0px" y="0px"
	 width="512px" height="512px" viewBox="220 -220 512 512" style="enable-background:new 220 -220 512 512;" xml:space="preserve">
<path d="M475.5,272.3c-40.3,0-88.1-5.4-127.9-14.4c-47.4-10.7-75-24.3-82.1-40.5c-7.3-16.6-12-120.8-6.2-200.6
	c6.5-88.8,19.4-98.4,29-125.9c14.2-40.2,12.4-48.8,25.7-64.2c4.8-5.5-3.2-11,58.5-15.1c44.6-3,67.7-7.8,104.8-7.8
	c47.3,0,78.1-0.3,116.6,2.9c12.9,1.1,28.9,2.8,31.6,5c4.3,3.6,26.8,4.6,32.1,59.2c3.1,31.7,29.7,83.8,33.4,128.5
	c6.6,78.4,19.1,186,8.5,214.1c-9.6,25.4-39.8,42.1-92.4,50.8C565.9,271.4,517.5,272.3,475.5,272.3z M330-158.6
	C311.3-136.2,282-25.1,278.7,33c-4.6,82.5,1.4,164.1,6.5,175.8c2.3,5.3,19.1,17.3,67.2,28.1c38.3,8.7,84.3,13.9,123.1,13.9
	c51.2,0,187.2,0,204-44.7c7.3-19.4-2.4-113.1-12-206.5C663.8-37,643-103.1,637.3-134.7c-6.5-35.9-35-31.9-36.6-35.9
	c-16.5-3.8-25-3.9-120-3.9c-0.5,0-1,0-1.6,0c-51,0-65.7,5.3-100.3,7.5C325.5-163.8,332.2-159.8,330-158.6z M322.3-166.1l8.1,7.1
	L322.3-166.1z"/>
<path d="M652.3,206.6c5.1-4,8.9-8.6,10.9-13.8c1.4-3.8,2.2-10.8,2.3-20.2c-3.6,1.1-7.8,2.4-12.6,3.8L652.3,206.6z"/>
<path d="M486.9,234.3l3.1-29c-2.6,0.2-5.1,0.3-7.7,0.4l-4.9,28.6C480.4,234.3,483.6,234.3,486.9,234.3z"/>
<path d="M345.5,218.1l-2.5-25.3c-2.4-0.5-4.7-1-7-1.5l2.8,24.9C340.9,216.8,343.1,217.4,345.5,218.1z"/>
<path d="M495.8,208.2l-2.8,26c5.8-0.1,12-0.1,18.5-0.3v-28.1L495.8,208.2z"/>
<path d="M531.9,233.2l-0.4-32c-4.6,0.6-9.3,1.1-14,1.6v30.9C522.2,233.6,527,233.4,531.9,233.2z"/>
<path d="M574.6,229.8l0.4-35.2c-4.5,0.8-9.2,1.6-14,2.4l0.4,34.2C565.8,230.8,570.3,230.3,574.6,229.8z"/>
<path d="M419,231.2l-1.9-27.2c-3.7-0.3-7.3-0.7-10.9-1.1l3,27.2C412.4,230.4,415.7,230.8,419,231.2z"/>
<path d="M617.4,186.5l-1.5,35.9c4.1-1.1,8.1-2.3,11.9-3.5l1.1-35.9L617.4,186.5z"/>
<path d="M537.6,202.1l0.4,30.7c5.8-0.3,11.6-0.7,17.5-1.2l-0.4-32.9L537.6,202.1z"/>
<path d="M452.7,233.8l4.1-27.7c-5.6-0.1-11.2-0.3-16.8-0.5l-0.7,27.4C443.8,233.3,448.2,233.6,452.7,233.8z"/>
<path d="M384.2,226.3l-2.3-26.6c-4-0.6-7.9-1.2-11.8-1.9l0.7,26C375.2,224.7,379.7,225.6,384.2,226.3z"/>
<path d="M315.5,208l-3.5-22.4c-2.7-0.7-5.3-1.4-7.8-2l5.4,21.6C311.4,206.1,313.3,207,315.5,208z"/>
<path d="M490.1,194.8c81.6-6.2,152.2-23.5,175.5-30c-0.4-36.6-7-100.4-13.5-164c-3.5-34-22.9-95.4-28.2-124.8
	c-6-33.3-32.6-29.6-34-33.3c-15.3-3.5-23.2-3.7-111.6-3.7c-0.5,0-1,0-1.4,0c-47.4,0-61,4.9-93.2,6.9c-49.6,3.1-43.3,6.7-45.4,7.9
	c-17.4,20.8-44.6,124.1-47.6,178.1c-3,53.2-1.2,106,1.8,137C324,178.4,409,201,490.1,194.8z M625.1,130.6c0.2,0,4.5-0.4,22.9-7.5
	l2.9,7.5c-13.3,5.1-22.6,8-25.7,8c-0.1,0-0.1,0-0.2,0l0.4-8C625.4,130.6,625.3,130.6,625.1,130.6z M648.7,144.5l2.9,7.5
	c-20.7,8-42.1,11.8-43,11.9l-1.4-7.9C607.4,156,628.7,152.2,648.7,144.5z M569.8-148.1c1.6,0.1,3.2,0.2,4.8,0.3
	c20.3,2,34.4,10.1,35,10.4l-4,6.9c-0.2-0.1-15.4-8.8-36.1-9.7L569.8-148.1z M340.8,159.3c-20.4,0-35.2-6.7-35.9-7l3.3-7.3
	c0.2,0.1,16.2,7.2,36.9,6.1l0.4,8C344,159.3,342.4,159.3,340.8,159.3z M502.8-13.4l0.1-28.2l-1.1-25.8c29.7,7.8,52,25.8,62.5,39
	c4,5,7.4,9.3,11,12.3c0.3,0.2,0.5,0.4,0.8,0.7c5.7,4.9,11.7,14.9,16.7,21.8c-3.3,6.4-5.7,11.7-10,16.2l0,0c-1.9,1.9-7.6,8.1-8.9,9.2
	c-3.6,3-6.3,8.9-11.3,12.9c-13.1,10.5-27.7,26.1-57.5,33.7l-0.2-26.3l0.1-26.5l-19.5,0.6L467,26.6l-5.7,0.2l-108.5,4l-2.6-39.1
	c-10.3,0.2-0.4-0.5,0-0.5l0,0c0,0,0,0,0,0l0,0.5c6.4-0.1,20.7-0.6,50.1-1.9c12-0.5,23.4-0.9,34.1-1.3c10.6-0.4,20.6-0.6,29.9-0.9
	l2.8-0.1L502.8-13.4z M576.1-15.5"/>
<path d="M318.3,187.2l3.6,23.4c3.2,1.2,6.7,2.4,10.6,3.7l-2.7-24.4C325.8,189,322,188.1,318.3,187.2z"/>
<path d="M423.2,206.3l1.8,25.5c2.8,0.3,5.5,0.5,8.3,0.7l0.7-26.2H423.2z"/>
<path d="M388,200.6l2.3,26.8c4.2,0.7,8.4,1.3,12.7,1.9l-3-27.1C395.9,201.7,391.9,201.1,388,200.6z"/>
<path d="M349.4,196.4l2.3,23.2c2.4,0.6,4.9,1.2,7.4,1.8c1.9,0.4,3.8,0.8,5.7,1.2l-0.7-24L349.4,196.4z"/>
<path d="M462.7,207.2l-4,26.8c4.3,0.1,8.6,0.2,12.7,0.2l4.6-27.1H462.7z"/>
<path d="M646.2,210.7l0.7-32.6c-3.7,1-7.7,2.1-12,3.2l-1.1,35.3C638.4,214.9,642.5,212.9,646.2,210.7z"/>
<path d="M581,193.5l-0.4,35.5c3.7-0.5,7.4-1,11.1-1.6l3-36.7L581,193.5z"/>
<path d="M609.9,223.9l1.6-36.8c-3.4,0.8-6.9,1.6-10.6,2.3l-3.1,36.9C601.9,225.6,605.9,224.8,609.9,223.9z"/>
<path d="M293.7,180.7c1,7.3,2,12.3,3,14.5c0.6,1.4,2.4,3.4,5.8,5.7l-4.8-19.2C296.3,181.4,295,181.1,293.7,180.7z"/>
<path d="M318.2,186.3l0.1,0.9c3.6,0.9,7.5,1.8,11.4,2.7l0-0.1L318.2,186.3z"/>
<path d="M273.3,174.5c0,0,0.1,0,0.2,0.1c0-0.2,0-0.3,0-0.5L273.3,174.5z"/>
<path d="M673.5,162.3L673.5,162.3C673.7,162.3,673.7,162.3,673.5,162.3z"/>
<path d="M470.9,28.5l2.8,0.1C472.8,28.6,471.8,28.5,470.9,28.5L470.9,28.5z"/>
<path d="M587.9,33.5L587.9,33.5C587.9,33.5,587.9,33.5,587.9,33.5z"/>
<path d="M587.9,33l0,0.5C588.3,33.5,598.2,33.6,587.9,33z"/>
</svg>
