<?xml version="1.0" encoding="utf-8"?>
<!-- Generator: Adobe Illustrator 19.1.0, SVG Export Plug-In . SVG Version: 6.00 Build 0)  -->
<svg version="1.1" id="Layer_1" xmlns="http://www.w3.org/2000/svg" xmlns:xlink="http://www.w3.org/1999/xlink" x="0px" y="0px"
	 width="32px" height="32px" viewBox="-83 55 32 32" style="enable-background:new -83 55 32 32;" xml:space="preserve">
<g>
	<path d="M-67,56.9c-7.8,0-14,6.3-14,14s6.3,14,14,14s14-6.3,14-14S-59.2,56.9-67,56.9z M-64.3,63.1c0.7,0,1.2,0.5,1.2,1.2
		c0,0.7-0.5,1.2-1.2,1.2c-0.7,0-1.2-0.5-1.2-1.2C-65.5,63.7-65,63.1-64.3,63.1z M-72.3,63.9c0.7,0,1.2,0.5,1.2,1.2
		c0,0.7-0.5,1.2-1.2,1.2c-0.7,0-1.2-0.5-1.2-1.2C-73.5,64.4-73,63.9-72.3,63.9z M-76.2,76.6l-0.3-0.4l20.2-6.4l0.1,0.7L-76.2,76.6z"
		/>
</g>
</svg>
