<?xml version="1.0" encoding="utf-8"?>
<!-- Generator: Adobe Illustrator 19.1.0, SVG Export Plug-In . SVG Version: 6.00 Build 0)  -->
<svg version="1.1" id="Layer_1" xmlns="http://www.w3.org/2000/svg" xmlns:xlink="http://www.w3.org/1999/xlink" x="0px" y="0px"
	 width="32px" height="32px" viewBox="-83 55 32 32" style="enable-background:new -83 55 32 32;" xml:space="preserve">
<g>
	<path d="M-67,56.9c-7.8,0-14,6.3-14,14s6.3,14,14,14s14-6.3,14-14S-59.2,56.9-67,56.9z M-66,66.4c0.7,0,1.2,0.6,1.2,1.2
		c0,0.7-0.6,1.2-1.2,1.2c-0.7,0-1.2-0.6-1.2-1.2C-67.2,66.9-66.6,66.4-66,66.4z M-71.3,67.7c0.7,0,1.2,0.5,1.2,1.2
		c0,0.7-0.5,1.2-1.2,1.2c-0.7,0-1.2-0.5-1.2-1.2C-72.5,68.2-72,67.7-71.3,67.7z M-59.1,72.8c-0.3,0-0.6,0-0.8-0.1
		c-0.6-0.2-1-0.5-1.3-1.1l-10.7,4c0.4,1.8-0.7,3.1-1.4,3.5l-0.5-0.8c0.1,0,1.6-1.1,0.8-2.9c-0.2-0.5-0.5-0.8-0.9-0.9
		c-0.9-0.3-1.9,0.2-2,0.2l-0.4-0.9c0.1,0,1.5-0.7,2.7-0.2c0.5,0.2,1,0.6,1.3,1.1l10.7-4c-0.5-1.7,0.5-3.1,1.2-3.6l0.6,0.8
		c-0.1,0-1.5,1.1-0.7,2.9c0.2,0.5,0.5,0.8,0.9,0.9c0.9,0.3,1.9-0.3,1.9-0.3l0.5,0.9C-57.3,72.4-58.1,72.8-59.1,72.8z"/>
</g>
</svg>
