<?xml version="1.0" encoding="utf-8"?>
<!-- Generator: Adobe Illustrator 19.1.0, SVG Export Plug-In . SVG Version: 6.00 Build 0)  -->
<svg version="1.1" id="Layer_1" xmlns="http://www.w3.org/2000/svg" xmlns:xlink="http://www.w3.org/1999/xlink" x="0px" y="0px"
	 width="32px" height="32px" viewBox="-83 55 32 32" style="enable-background:new -83 55 32 32;" xml:space="preserve">
<g>
	<path d="M-67,56.9c-7.8,0-14,6.3-14,14s6.3,14,14,14s14-6.3,14-14S-59.2,56.9-67,56.9z M-59.3,66c0.7,0,1.2,0.5,1.2,1.2
		s-0.5,1.2-1.2,1.2c-0.7,0-1.2-0.5-1.2-1.2S-60,66-59.3,66z M-74.1,65.2c0.7,0,1.2,0.5,1.2,1.2c0,0.7-0.5,1.2-1.2,1.2
		c-0.7,0-1.2-0.5-1.2-1.2C-75.3,65.7-74.8,65.2-74.1,65.2z M-68.5,75.7c-7.1,0-9.3-2.2-9.4-2.3l0.4-0.4l0.4-0.3c0,0,2,2,8.6,2
		c6.8,0,10.4-2.4,10.5-2.4l0.6,0.8C-57.6,73.2-61.4,75.7-68.5,75.7z"/>
	<polygon points="-77.1,72.7 -77.5,73 -77.5,73 	"/>
</g>
</svg>
