<?xml version="1.0" encoding="utf-8"?>
<!-- Generator: Adobe Illustrator 19.1.0, SVG Export Plug-In . SVG Version: 6.00 Build 0)  -->
<svg version="1.1" id="Layer_1" xmlns="http://www.w3.org/2000/svg" xmlns:xlink="http://www.w3.org/1999/xlink" x="0px" y="0px"
	 width="512px" height="512px" viewBox="220 -220 512 512" style="enable-background:new 220 -220 512 512;" xml:space="preserve">
<style type="text/css">
	.st0{fill:none;}
</style>
<path d="M475,259c-37.4,0-81.9-5-118.8-13.4c-44.1-10-69.7-22.6-76.3-37.6c-6.8-15.4-11.1-112.3-5.7-186.4c6-82.5,18-91.5,27-117
	c13.2-37.3,11.5-45.4,23.9-59.6c4.5-5.1-3-10.2,54.4-14c41.4-2.8,62.9-7.2,97.5-7.3c43.9,0,72.6-0.2,108.4,2.7
	c12,1,26.9,2.6,29.3,4.7c4,3.3,24.9,4.3,29.8,55C647.3-84.5,672-36,675.5,5.5c6.1,72.8,17.8,172.8,7.9,199
	c-8.9,23.7-37,39.1-85.8,47.2C559,258.1,514,259,475,259z M339.7-141.5c-17.4,20.8-44.6,124.1-47.6,178.1
	c-4.3,76.7,1.3,152.6,6.1,163.4c2.2,5,17.8,16,62.4,26.1C396.2,234.2,439,239,475,239c47.6,0,174,0,189.6-41.5
	c6.8-18-2.2-105.1-11.1-192c-3.5-34-22.9-95.4-28.2-124.8c-6-33.3-32.6-29.6-34-33.3c-15.3-3.5-23.2-3.7-111.6-3.7c-0.5,0-1,0-1.4,0
	c-47.4,0-61,4.9-93.2,6.9C335.5-146.3,341.8-142.7,339.7-141.5z M332.6-148.5l7.5,6.6L332.6-148.5z"/>
<path d="M464.6,210.9c-95.3,0-185.6-30.2-189.8-31.6l6.4-18.9c0,0-2.7,9.7-2.7,9.7l2.5-0.5c1.2,0.4,108.9,37.7,210.5,30
	C594,191.7,679.2,166.4,675,167l7.4,5.1c-3.3,1.2-81.5,29.6-186.7,37.6C485.4,210.5,475,210.9,464.6,210.9z"/>
<polygon points="513,253.5 513,210.6 497.3,212.9 493.2,250.4 471,249.8 477.5,211.9 464.1,211.9 458.6,249 434.4,249 435.4,211 
	424.7,211 427.2,246.8 405.8,246.2 401.2,204.8 389.3,203.3 392.8,244.3 366.6,239 365.6,203.4 350.8,201.1 354.3,236 335.8,235.3 
	331.2,194.5 319.6,191 325.7,230.2 308.4,223.8 298,182 303.8,180.8 313.6,219.9 318.3,221.6 312.4,183.1 336.8,190.4 341.2,230.1 
	347.7,230.3 344.2,194.6 371.4,198.7 372.4,234.6 386.2,237.4 382.7,197 406.8,200 411.2,240.9 420.8,241.2 418.3,205.6 
	441.6,205.6 440.6,243.6 453.4,243.6 458.9,206.5 484.5,206.5 478,244.6 487.8,244.8 491.7,208.2 519,204.2 519,247.2 533.5,245.3 
	533,202.5 562.5,196.8 563,242.5 576,241.9 576.5,193.9 602.8,188.6 598.8,236.9 611.1,234.2 613.1,187.3 636.6,180 635.1,228.3 
	647.5,221.6 648.5,177.9 654.5,178 653.5,224.8 628.9,238 630.4,187.7 618.9,191.3 616.9,238.5 592.2,243.9 596.2,195.5 
	582.5,198.3 582,247 557,248.2 556.5,203.5 539,206.9 539.5,250 "/>
<path d="M342.3,164c-20.4,0-35.2-6.7-35.9-7l3.3-7.3c0.2,0.1,16.2,7.2,36.9,6.1l0.4,8C345.5,164,343.9,164,342.3,164z"/>
<path d="M576-143c20.3,2,34.4,10.1,35,10.4l-4,6.9c-0.2-0.1-15.4-8.8-36.1-9.7l0.4-8C572.9-143.3,574.5-143.2,576-143z"/>
<path d="M610,168.6l-1.4-7.9c0.2,0,21.5-3.8,41.5-11.5l2.9,7.5C632.3,164.6,610.9,168.4,610,168.6z"/>
<path d="M626.7,143.3c-0.1,0-0.1,0-0.2,0l0.4-8c0,0-0.1,0-0.3,0c0.2,0,4.5-0.4,22.9-7.5l2.9,7.5C639,140.4,629.7,143.3,626.7,143.3z
	"/>
<g>
	<path class="st0" d="M467.1-5.7L467-6.4l-114.2,5c59.3-0.5,55.9-0.9,92.4-2.9C452.8-4.8,460.1-5.2,467.1-5.7z"/>
	<path class="st0" d="M467.3,33.3l2.8-0.1l0,0C469.2,33.2,468.2,33.3,467.3,33.3z"/>
	<path d="M594,5.3c-3.9-6.4-6.7-11.6-11.7-16l-96.8,3.9l-18.5,1.1c-7,0.5-14.2,0.9-21.8,1.3c-36.5,2-33.1,2.4-92.4,2.9l0.3,39.7
		c0.8,0-28.4,0.2,50.1-2.3c12-0.4,23.4-0.8,34.1-1.2l29.9-1.4c0.9,0,1.9-0.1,2.8-0.1l0,0L579,28.2C584.3,22.9,589.6,12.5,594,5.3z"
		/>
	<path d="M467.3,33.3l-29.9,1.4C447.9,34.2,457.9,33.8,467.3,33.3z"/>
	<path d="M507.9,59.7l0.8,25.8c29-10,49.9-29.6,59.5-43.5c3.6-5.3,6.7-9.8,10.1-13.1c0.2-0.2,0.5-0.5,0.8-0.8l-73.3,3.3L507.9,59.7z
		"/>
	<path d="M573.4-18.7c-3.8-2.7-6.9-8.4-12.2-12.1c-13.8-9.5-29.5-24-59.8-29.4l1.7,26.2l2.1,26.6l77.8-2.9
		C580.9-11.9,574.8-17.7,573.4-18.7z"/>
</g>
</svg>
