<?xml version="1.0" encoding="utf-8"?>
<!-- Generator: Adobe Illustrator 19.1.0, SVG Export Plug-In . SVG Version: 6.00 Build 0)  -->
<svg version="1.1" id="Layer_1" xmlns="http://www.w3.org/2000/svg" xmlns:xlink="http://www.w3.org/1999/xlink" x="0px" y="0px"
	 width="479px" height="284px" viewBox="-292.5 -51 479 284" style="enable-background:new -292.5 -51 479 284;"
	 xml:space="preserve">
<style type="text/css">
	.st0{fill:#FFFFFF;stroke:#FFFFFF;stroke-width:20;stroke-miterlimit:10;}
	.st1{fill:#FFFFFF;stroke:#FFFFFF;stroke-width:20;stroke-linejoin:round;stroke-miterlimit:10;}
	.st2{fill:#F6D0CF;}
	.st3{fill:#CE6828;}
	.st4{fill:#C42A2A;}
	.st5{fill:#231F20;}
	.st6{fill:#FFFFFF;}
	.st7{fill:#662121;}
</style>
<rect x="-144.5" y="-1" class="st0" width="214.7" height="55"/>
<g>
	<path class="st1" d="M-149.3,5.4l3-0.3V-8.5h-2.4l-1.1,5.6h-2.6l0.4-7.6h16.2l0.3,7.6h-2.4l-1.2-5.6h-2.3V5.1l3.3,0.3v1.7h-11.2
		V5.4z"/>
	<path class="st1" d="M-134.3,5.4l1.2-0.2V-9.6l-1.6-0.4v-1.7l5.3-0.6h0.1l0.8,0.6l0,5l-0.2,2.2c0.2-0.2,0.5-0.4,0.7-0.6
		c0.3-0.2,0.6-0.4,1-0.5s0.8-0.3,1.3-0.4c0.5-0.1,1-0.2,1.5-0.2c0.8,0,1.4,0.1,1.9,0.3c0.5,0.2,0.9,0.5,1.2,0.9s0.5,0.9,0.6,1.6
		c0.1,0.6,0.2,1.4,0.2,2.2v6.3l1.4,0.2v1.7h-7.1V5.5l1.1-0.2v-6.3c0-0.5,0-0.9-0.1-1.2c0-0.3-0.1-0.6-0.2-0.8
		c-0.1-0.2-0.3-0.3-0.5-0.4c-0.2-0.1-0.4-0.1-0.7-0.1c-0.4,0-0.8,0.1-1.1,0.3c-0.3,0.2-0.6,0.4-0.8,0.6v7.9l1.2,0.2v1.7h-7.1V5.4z"
		/>
	<path class="st1" d="M-118,0.6c0-1.1,0.2-2.1,0.5-2.9s0.8-1.5,1.3-2.1c0.6-0.6,1.3-1,2.1-1.3c0.8-0.3,1.8-0.4,2.8-0.4
		c0.9,0,1.7,0.1,2.4,0.3c0.7,0.2,1.2,0.5,1.7,0.9c0.5,0.4,0.8,0.9,1,1.4c0.2,0.6,0.4,1.2,0.4,1.9c0,0.5,0,1-0.1,1.4s-0.1,0.7-0.2,1
		h-7.2c0.1,1.3,0.4,2.2,1,2.8c0.5,0.6,1.2,0.9,2.2,0.9c0.3,0,0.6,0,0.9-0.1c0.3-0.1,0.6-0.1,0.9-0.2s0.6-0.2,0.8-0.3
		s0.5-0.2,0.6-0.3l0.8,1.6c-0.2,0.2-0.4,0.4-0.8,0.6c-0.4,0.2-0.8,0.5-1.2,0.7c-0.5,0.2-1,0.4-1.6,0.5c-0.6,0.1-1.2,0.2-1.8,0.2
		c-1.2,0-2.2-0.2-3.1-0.5c-0.8-0.3-1.5-0.8-2.1-1.4c-0.5-0.6-0.9-1.3-1.1-2.1C-117.9,2.4-118,1.5-118,0.6z M-110.3-1
		c0,0,0-0.1,0-0.2s0-0.2,0-0.2c0-0.1,0-0.2,0-0.2s0-0.1,0-0.2c0-0.4,0-0.7-0.1-1s-0.1-0.6-0.2-0.8c-0.1-0.2-0.2-0.4-0.4-0.5
		c-0.2-0.1-0.4-0.2-0.7-0.2c-0.2,0-0.5,0-0.7,0.1c-0.2,0.1-0.4,0.2-0.5,0.5c-0.1,0.2-0.3,0.6-0.4,1s-0.1,1-0.1,1.7H-110.3z"/>
	<path class="st1" d="M-98.7,5.3L-97,5V-8.3l-1.7-0.3v-2h4c0.4,0,0.8,0,1.1,0s0.7,0,1,0c0.3,0,0.7,0,1,0s0.7,0,1.1,0
		c1.5,0,2.7,0.2,3.8,0.5c1.1,0.4,2,0.9,2.8,1.6c0.7,0.7,1.3,1.5,1.7,2.6s0.5,2.2,0.5,3.5c0,1.4-0.2,2.6-0.6,3.8s-1,2.2-1.8,3.1
		s-1.7,1.5-2.9,2s-2.4,0.7-3.9,0.7c-0.3,0-0.7,0-1,0s-0.7,0-1.1,0c-0.3,0-0.7,0-1,0s-0.5,0-0.7,0h-4.1V5.3z M-92.2,5.1
		c0.2,0.1,0.4,0.1,0.6,0.2s0.5,0.1,0.8,0.1c0.6,0,1.1-0.1,1.6-0.4c0.5-0.3,0.9-0.7,1.2-1.2c0.3-0.6,0.6-1.3,0.7-2.2
		c0.2-0.9,0.3-2,0.3-3.2c0-1-0.1-1.9-0.2-2.8c-0.1-0.9-0.3-1.6-0.7-2.2c-0.3-0.6-0.7-1.1-1.2-1.5c-0.5-0.4-1.1-0.5-1.9-0.5
		c-0.4,0-0.7,0-0.9,0.1c-0.2,0.1-0.3,0.1-0.4,0.1V5.1z"/>
	<path class="st1" d="M-80.6,3c0-0.7,0.2-1.3,0.5-1.9c0.3-0.6,0.8-1,1.4-1.4c0.6-0.4,1.4-0.7,2.4-0.9c1-0.2,2.1-0.3,3.4-0.3v-0.3
		c0-0.3,0-0.5-0.1-0.7s-0.2-0.3-0.3-0.5c-0.2-0.1-0.4-0.2-0.7-0.3s-0.7-0.1-1.1-0.1c-0.5,0-0.9,0-1.3,0.1c-0.4,0-0.8,0.1-1.1,0.2
		c-0.3,0.1-0.6,0.1-0.9,0.2s-0.5,0.1-0.7,0.2h0l-0.9-1.7c0.2-0.1,0.4-0.3,0.8-0.5c0.4-0.2,0.8-0.4,1.4-0.6c0.5-0.2,1.1-0.4,1.8-0.5
		c0.7-0.1,1.4-0.2,2.2-0.2c1,0,1.9,0.1,2.5,0.3c0.7,0.2,1.2,0.5,1.6,0.8s0.7,0.9,0.9,1.5c0.2,0.6,0.3,1.3,0.3,2.2v6.5h1.2v1.7
		c-0.1,0-0.4,0.1-0.6,0.1C-68.4,7-68.7,7-69,7s-0.7,0.1-1,0.1s-0.7,0-0.9,0c-0.4,0-0.6,0-0.9-0.1C-72.1,7-72.3,7-72.4,6.9
		c-0.1-0.1-0.2-0.3-0.2-0.4s-0.1-0.4-0.1-0.7V5.3C-72.8,5.5-73,5.8-73.3,6s-0.5,0.4-0.8,0.6s-0.7,0.3-1.1,0.4s-0.8,0.2-1.3,0.2
		c-0.6,0-1.1-0.1-1.6-0.3c-0.5-0.2-0.9-0.5-1.3-0.8c-0.4-0.4-0.7-0.8-0.9-1.3C-80.5,4.3-80.6,3.7-80.6,3z M-75.8,2.5
		c0,0.3,0,0.6,0.1,0.9c0.1,0.3,0.2,0.5,0.3,0.7c0.1,0.2,0.3,0.3,0.5,0.5c0.2,0.1,0.4,0.2,0.6,0.2c0.2,0,0.5-0.1,0.7-0.2
		c0.3-0.1,0.5-0.3,0.6-0.5V0.3c-0.5,0-1,0.1-1.4,0.2c-0.4,0.1-0.7,0.3-0.9,0.5c-0.2,0.2-0.4,0.4-0.5,0.7C-75.7,2-75.8,2.2-75.8,2.5z
		"/>
	<path class="st1" d="M-66.4,5.4l1.3-0.2v-8.5l-1.5-0.5v-2.1l5.3-0.6h0.1l0.8,0.5V5.2l1.2,0.2v1.8h-7.2V5.4z M-64-7.9
		c-0.3-0.1-0.5-0.3-0.7-0.5c-0.2-0.2-0.4-0.4-0.5-0.7c-0.1-0.3-0.2-0.5-0.2-0.9c0-0.4,0.1-0.7,0.2-1s0.3-0.6,0.5-0.8
		c0.2-0.2,0.5-0.4,0.8-0.5s0.7-0.2,1.1-0.2h0c0.4,0,0.8,0.1,1.1,0.2s0.6,0.3,0.8,0.5c0.2,0.2,0.4,0.4,0.5,0.7
		c0.1,0.3,0.2,0.5,0.2,0.9c0,0.4-0.1,0.7-0.2,1C-60.6-9-60.7-8.7-61-8.5c-0.2,0.2-0.5,0.4-0.9,0.5c-0.3,0.1-0.7,0.2-1.2,0.2h0
		C-63.4-7.7-63.7-7.8-64-7.9z"/>
	<path class="st1" d="M-57.9,5.4l1.3-0.2v-15l-1.6-0.4v-1.7l5.3-0.6h0.1l0.8,0.6v17l1.3,0.2v1.8h-7.2V5.4z"/>
	<path class="st1" d="M-48.4,9.6c0.2,0,0.3,0.1,0.5,0.1c0.2,0,0.4,0.1,0.6,0.1c0.2,0,0.4,0,0.5,0c0.5,0,0.9-0.1,1.2-0.2
		c0.3-0.1,0.6-0.3,0.8-0.6c0.2-0.2,0.4-0.5,0.6-0.8c0.2-0.3,0.3-0.7,0.5-1h-1.5l-4.5-11.3l-1-0.3v-1.7h7.7v1.7l-1.6,0.3l1.8,6
		l0.5,1.9l0.4-1.9l1.7-6l-1.4-0.3v-1.7h5.7v1.7L-37-4.2c-0.1,0.4-0.3,0.8-0.5,1.3c-0.2,0.5-0.4,1.1-0.6,1.7
		c-0.2,0.6-0.4,1.2-0.7,1.9c-0.2,0.6-0.4,1.3-0.7,1.9s-0.4,1.2-0.6,1.7c-0.2,0.6-0.4,1-0.5,1.5c-0.2,0.4-0.3,0.8-0.4,1
		s-0.1,0.4-0.2,0.4c-0.3,0.9-0.7,1.7-1,2.4s-0.8,1.3-1.2,1.8c-0.4,0.5-0.9,0.8-1.5,1.1c-0.5,0.2-1.2,0.4-1.9,0.4c-0.2,0-0.4,0-0.6,0
		c-0.2,0-0.4,0-0.6,0c-0.2,0-0.4-0.1-0.5-0.1c-0.2,0-0.3-0.1-0.4-0.1V9.4C-48.7,9.5-48.6,9.5-48.4,9.6z"/>
	<path class="st1" d="M-30.1-1.5c0-1.5,0.2-2.7,0.7-3.9s1.1-2.1,1.9-2.9c0.8-0.8,1.8-1.4,2.9-1.8s2.3-0.6,3.6-0.6c0.6,0,1.2,0,1.8,0
		c0.6,0,1.1,0,1.6,0c0.5,0,1,0,1.4,0c0.4,0,0.7,0,1,0l-0.3,6.2h-3l-0.9-3.9c-0.1-0.1-0.1-0.1-0.2-0.2s-0.2-0.1-0.3-0.2
		c-0.1,0-0.3-0.1-0.5-0.1c-0.2,0-0.4,0-0.7,0c-0.5,0-1,0.1-1.4,0.4c-0.4,0.3-0.8,0.7-1.1,1.3c-0.3,0.6-0.5,1.3-0.7,2.1
		c-0.2,0.9-0.2,1.9-0.2,3c0,1.1,0.1,2.1,0.2,2.9c0.1,0.9,0.4,1.6,0.6,2.3c0.3,0.6,0.6,1.1,1.1,1.4c0.4,0.3,0.9,0.5,1.5,0.5
		c0.3,0,0.6,0,0.8-0.1c0.2,0,0.4-0.1,0.5-0.1c0.2-0.1,0.3-0.1,0.4-0.2c0.1-0.1,0.2-0.2,0.3-0.3l1.1-2.6l2.7,0.2l-0.4,4.1
		c-0.3,0-0.6,0.1-0.8,0.1c-0.3,0.1-0.5,0.1-0.8,0.2c-0.3,0.1-0.5,0.1-0.8,0.2C-18.4,6.9-18.7,6.9-19,7s-0.7,0.1-1.1,0.1
		s-0.9,0.1-1.4,0.1c-1.5,0-2.7-0.2-3.8-0.6c-1.1-0.4-2-1-2.7-1.8s-1.2-1.7-1.6-2.7C-29.9,1-30.1-0.2-30.1-1.5z"/>
	<path class="st1" d="M-14.2,3c0-0.7,0.2-1.3,0.5-1.9c0.3-0.6,0.8-1,1.4-1.4c0.6-0.4,1.4-0.7,2.4-0.9c1-0.2,2.1-0.3,3.4-0.3v-0.3
		c0-0.3,0-0.5-0.1-0.7s-0.2-0.3-0.3-0.5C-7-3-7.3-3.1-7.5-3.1s-0.7-0.1-1.1-0.1c-0.5,0-0.9,0-1.3,0.1c-0.4,0-0.8,0.1-1.1,0.2
		c-0.3,0.1-0.6,0.1-0.9,0.2s-0.5,0.1-0.7,0.2h0l-0.9-1.7c0.2-0.1,0.4-0.3,0.8-0.5c0.4-0.2,0.8-0.4,1.4-0.6c0.5-0.2,1.1-0.4,1.8-0.5
		C-9-6.1-8.3-6.1-7.5-6.1c1,0,1.9,0.1,2.5,0.3C-4.3-5.7-3.7-5.4-3.3-5s0.7,0.9,0.9,1.5C-2.3-3-2.2-2.2-2.2-1.4v6.5h1.2v1.7
		c-0.1,0-0.4,0.1-0.6,0.1C-2,7-2.3,7-2.6,7s-0.7,0.1-1,0.1s-0.7,0-0.9,0c-0.4,0-0.6,0-0.9-0.1C-5.7,7-5.9,7-6,6.9
		c-0.1-0.1-0.2-0.3-0.2-0.4S-6.3,6-6.3,5.8V5.3C-6.4,5.5-6.6,5.8-6.9,6s-0.5,0.4-0.8,0.6S-8.4,6.9-8.8,7s-0.8,0.2-1.3,0.2
		c-0.6,0-1.1-0.1-1.6-0.3c-0.5-0.2-0.9-0.5-1.3-0.8c-0.4-0.4-0.7-0.8-0.9-1.3C-14.1,4.3-14.2,3.7-14.2,3z M-9.4,2.5
		c0,0.3,0,0.6,0.1,0.9C-9.2,3.6-9.1,3.9-9,4.1c0.1,0.2,0.3,0.3,0.5,0.5c0.2,0.1,0.4,0.2,0.6,0.2c0.2,0,0.5-0.1,0.7-0.2
		C-6.9,4.4-6.7,4.2-6.5,4V0.3c-0.5,0-1,0.1-1.4,0.2C-8.2,0.6-8.5,0.8-8.8,1C-9,1.2-9.1,1.4-9.2,1.7C-9.3,2-9.4,2.2-9.4,2.5z"/>
	<path class="st1" d="M0,5.4l1.3-0.2V-3L0.1-3.5v-2.1l4.3-0.6h0.1l0.8,0.5v0.6L5.1-3h0.1c0.1-0.3,0.2-0.6,0.4-1
		c0.2-0.4,0.5-0.7,0.9-1s0.8-0.6,1.2-0.8c0.5-0.2,1-0.3,1.5-0.3c0.2,0,0.5,0,0.6,0.1c0.2,0,0.3,0.1,0.4,0.2v4.8
		c-0.1-0.1-0.2-0.2-0.4-0.3C9.9-1.5,9.7-1.6,9.5-1.7C9.3-1.7,9.1-1.8,8.9-1.8c-0.2,0-0.5-0.1-0.8-0.1c-0.5,0-0.9,0.1-1.3,0.2
		C6.4-1.6,6.1-1.5,6-1.4v6.6l2.4,0.2v1.7H0V5.4z"/>
	<path class="st1" d="M16.6,7.2c-0.7,0-1.4-0.1-2-0.4C14,6.6,13.4,6.2,13,5.7s-0.8-1.2-1.1-2S11.5,2,11.5,0.8c0-0.6,0.1-1.2,0.2-1.8
		c0.1-0.6,0.3-1.1,0.6-1.6s0.6-1,1-1.4c0.4-0.4,0.9-0.8,1.4-1.1c0.5-0.3,1.2-0.6,1.8-0.7c0.7-0.2,1.4-0.3,2.3-0.3c0.2,0,0.3,0,0.5,0
		c0.2,0,0.3,0.1,0.5,0.1v-3.5l-2.2-0.4v-1.8l5.8-0.5h0.1l0.8,0.7V5.2h1.2v1.7c-0.2,0-0.4,0.1-0.7,0.1c-0.3,0-0.6,0.1-0.9,0.1
		c-0.3,0-0.6,0.1-0.9,0.1c-0.3,0-0.6,0-0.8,0c-0.3,0-0.6,0-0.8-0.1c-0.2,0-0.4-0.1-0.5-0.2s-0.3-0.2-0.3-0.4s-0.1-0.4-0.1-0.7V5.4
		c-0.2,0.3-0.4,0.5-0.7,0.8s-0.6,0.4-0.9,0.6c-0.3,0.2-0.7,0.3-1,0.4C17.4,7.1,17,7.2,16.6,7.2z M18.3,4.9c0.4,0,0.7-0.1,0.9-0.2
		c0.2-0.1,0.4-0.3,0.6-0.5v-8.1c-0.1-0.1-0.2-0.3-0.4-0.3c-0.2-0.1-0.4-0.1-0.7-0.1c-0.3,0-0.6,0.1-0.9,0.2
		c-0.3,0.2-0.5,0.4-0.7,0.8c-0.2,0.4-0.4,0.9-0.5,1.5c-0.1,0.6-0.2,1.4-0.2,2.3c0,0.8,0,1.4,0.1,2c0.1,0.6,0.2,1,0.4,1.4
		c0.2,0.4,0.4,0.6,0.6,0.8C17.7,4.8,18,4.9,18.3,4.9z"/>
	<path class="st1" d="M26.9,5.4l1.3-0.2v-8.5l-1.5-0.5v-2.1L32-6.5h0.1l0.8,0.5V5.2l1.2,0.2v1.8h-7.2V5.4z M29.3-7.9
		C29-8,28.8-8.2,28.6-8.4c-0.2-0.2-0.4-0.4-0.5-0.7c-0.1-0.3-0.2-0.5-0.2-0.9c0-0.4,0.1-0.7,0.2-1s0.3-0.6,0.5-0.8
		c0.2-0.2,0.5-0.4,0.8-0.5s0.7-0.2,1.1-0.2h0c0.4,0,0.8,0.1,1.1,0.2s0.6,0.3,0.8,0.5c0.2,0.2,0.4,0.4,0.5,0.7
		c0.1,0.3,0.2,0.5,0.2,0.9c0,0.4-0.1,0.7-0.2,1c-0.1,0.3-0.3,0.6-0.5,0.8c-0.2,0.2-0.5,0.4-0.9,0.5c-0.3,0.1-0.7,0.2-1.2,0.2h0
		C29.9-7.7,29.6-7.8,29.3-7.9z"/>
	<path class="st1" d="M35.8,5.4L37,5.2V-3l-1.3-0.4v-2.2l4.8-0.6h0.1l0.7,0.6v0.8l0,0.5c0.2-0.2,0.5-0.5,0.9-0.7s0.7-0.4,1.1-0.6
		s0.8-0.3,1.3-0.4c0.5-0.1,1-0.2,1.5-0.2c0.7,0,1.3,0.1,1.8,0.3S48.7-5.4,49-5c0.3,0.4,0.5,0.9,0.7,1.6c0.1,0.6,0.2,1.4,0.2,2.4v6.3
		l1.2,0.2v1.7h-6.9V5.4l1-0.2v-6.3c0-0.5,0-0.9-0.1-1.2c0-0.3-0.1-0.6-0.2-0.8s-0.3-0.3-0.5-0.4c-0.2-0.1-0.4-0.1-0.7-0.1
		c-0.2,0-0.4,0-0.6,0.1c-0.2,0.1-0.4,0.1-0.5,0.2c-0.2,0.1-0.3,0.2-0.4,0.3c-0.1,0.1-0.2,0.2-0.3,0.3v7.9l1.2,0.2v1.7h-7.1V5.4z"/>
	<path class="st1" d="M52.1,3c0-0.7,0.2-1.3,0.5-1.9c0.3-0.6,0.8-1,1.4-1.4c0.6-0.4,1.4-0.7,2.4-0.9c1-0.2,2.1-0.3,3.4-0.3v-0.3
		c0-0.3,0-0.5-0.1-0.7s-0.2-0.3-0.3-0.5C59.2-3,59-3.1,58.7-3.1s-0.7-0.1-1.1-0.1c-0.5,0-0.9,0-1.3,0.1c-0.4,0-0.8,0.1-1.1,0.2
		c-0.3,0.1-0.6,0.1-0.9,0.2s-0.5,0.1-0.7,0.2h0l-0.9-1.7c0.2-0.1,0.4-0.3,0.8-0.5c0.4-0.2,0.8-0.4,1.4-0.6c0.5-0.2,1.1-0.4,1.8-0.5
		c0.7-0.1,1.4-0.2,2.2-0.2c1,0,1.9,0.1,2.5,0.3C62-5.7,62.5-5.4,62.9-5s0.7,0.9,0.9,1.5C64-3,64-2.2,64-1.4v6.5h1.2v1.7
		c-0.1,0-0.4,0.1-0.6,0.1C64.3,7,64,7,63.6,7s-0.7,0.1-1,0.1s-0.7,0-0.9,0c-0.4,0-0.6,0-0.9-0.1C60.6,7,60.4,7,60.3,6.9
		c-0.1-0.1-0.2-0.3-0.2-0.4S60,6,60,5.8V5.3c-0.2,0.2-0.4,0.4-0.6,0.7s-0.5,0.4-0.8,0.6S57.9,6.9,57.5,7s-0.8,0.2-1.3,0.2
		c-0.6,0-1.1-0.1-1.6-0.3c-0.5-0.2-0.9-0.5-1.3-0.8c-0.4-0.4-0.7-0.8-0.9-1.3C52.2,4.3,52.1,3.7,52.1,3z M56.9,2.5
		c0,0.3,0,0.6,0.1,0.9c0.1,0.3,0.2,0.5,0.3,0.7c0.1,0.2,0.3,0.3,0.5,0.5c0.2,0.1,0.4,0.2,0.6,0.2c0.2,0,0.5-0.1,0.7-0.2
		c0.3-0.1,0.5-0.3,0.6-0.5V0.3c-0.5,0-1,0.1-1.4,0.2C58,0.6,57.7,0.8,57.5,1c-0.2,0.2-0.4,0.4-0.5,0.7C56.9,2,56.9,2.2,56.9,2.5z"/>
	<path class="st1" d="M66,5.4l1.3-0.2v-15l-1.6-0.4v-1.7l5.3-0.6h0.1l0.8,0.6v17l1.3,0.2v1.8H66V5.4z"/>
</g>
<g>
	<g>
		<path class="st0" d="M126.3,143.2c-6.2,0-11-0.9-14.7-2.3c-13.8,1.4-30.3,2.3-49.9,2.3c-20.6,0-36.9,0-50.4,0
			C-22.3,155-48,165-48,165s-16.4-5.6-40.2-13.3v8.6c0.3-0.2,0.6-0.3,0.9-0.4c1.1-0.4,2.3-0.7,3.6-0.7c1.3,0,2.4,0.2,3.4,0.6
			c1.1,0.4,2,1,2.8,1.7c0.8,0.8,1.4,1.6,1.8,2.7c0.2,0.4,0.3,0.9,0.4,1.3C-35.2,166-45,167,40.5,167c119.8,0,124.6-26.5,124.6-26.5
			S148.7,143.2,126.3,143.2z"/>
		<path class="st0" d="M-24.9,151.6C-48.6,159.4-65,165-65,165s-25.7-10-59.2-21.8c-13.5,0-29.8,0-50.4,0c-19.7,0-36.1-0.8-49.9-2.3
			c-3.8,1.3-8.6,2.3-14.7,2.3c-22.5,0-38.8-2.7-38.8-2.7s3.7,20.7,87.3,25.5l1-3h4.4h3.4h8l1.2,3.8c6.1,0.2,12.5,0.3,19.3,0.3
			c30,0,48.3-0.1,61.1-0.3c0.1-0.7,0.3-1.4,0.5-2.1c0.4-1.1,1-2,1.8-2.9c0.8-0.8,1.8-1.5,2.9-2c1.1-0.4,2.3-0.7,3.6-0.7
			c1.3,0,2.4,0.2,3.4,0.6c1.1,0.4,2,1,2.8,1.7c0.8,0.8,1.4,1.6,1.8,2.7c0.3,0.7,0.5,1.5,0.5,2.3c13.6-0.4,22.3-0.8,50.2-1.1V151.6z"
			/>
	</g>
	<g>
		<path class="st0" d="M-48.6,28.4L-5,21.8L-17.5,53c0,0-11.3-2.8-19.1-10.7S-48.6,28.4-48.6,28.4z"/>
		<path class="st0" d="M8.1,86.7c0,0,3.4-14,3.4-28.4S5.4,35.8,5.4,35.8l78.1,0l3,19l-52.3,0l0,6.8c0,0,64.1-10.2,64.1,45.5
			s-50.8,60.3-50.8,60.3l-31.1,0l0-43.2c0,0,31.5,9.5,37.2-15.5S31.8,63,8.1,86.7z"/>
		<g>
			<path class="st0" d="M-64.7,26.6c-47,0-47,35.3-47,35.3c0,43.6,39.4,25,39.4,25s-9.5-9.1-9.5-20.1c0-7.4,3.8-12.3,9.5-14.8
				l23.6-23.6C-53.3,27.3-58.7,26.6-64.7,26.6z"/>
			<path class="st0" d="M-48.6,28.4L-72.3,52c2.8-1.2,6.2-1.8,9.8-1.8c11,0,18.6,9.1,18.6,18.6c0,4.5,0.4,8.3-3,13.6L-17.5,53
				C-21.6,44-30.4,32.7-48.6,28.4z M-44.4,48.6c-3.2,0-5.9-2.6-5.9-5.9c0-3.2,2.6-5.9,5.9-5.9s5.9,2.6,5.9,5.9
				C-38.6,46-41.2,48.6-44.4,48.6z"/>
			<circle class="st0" cx="-44.4" cy="42.7" r="5.9"/>
		</g>
	</g>
	<g>
		<path class="st0" d="M99.9,32.9h-2.8v-3.1c0.3-0.1,0.6-0.3,0.8-0.4c0.2-0.1,0.5-0.2,0.8-0.3c0.3-0.1,0.5-0.2,0.8-0.3
			s0.5-0.2,0.8-0.4c0.3-0.3,0.6-0.7,0.9-1.2s0.6-1,0.8-1.7c0.3-0.7,0.6-1.4,0.9-2.2c0.3-0.8,0.5-1.7,0.8-2.7h5.4l0.4,7.9h6.4v4.5
			h-6.3v11.8c0,1.2,0,2.2,0.1,2.9s0.1,1.2,0.3,1.6c0.1,0.4,0.3,0.6,0.6,0.7c0.3,0.1,0.6,0.1,1.1,0.1h0c0.8,0,1.5-0.1,2.1-0.2
			c0.6-0.1,1.2-0.3,1.7-0.4h0l1.2,3.4c-0.5,0.4-1,0.7-1.7,1.1c-0.7,0.3-1.5,0.6-2.3,0.9s-1.8,0.5-2.8,0.6s-2,0.2-3.1,0.2h0
			c-2.3,0-4-0.5-5.1-1.6c-1.1-1.1-1.6-2.6-1.6-4.6V32.9z"/>
		<path class="st0" d="M118,52.1l2.4-0.5V21.4l-3.2-0.7v-3.4L128,16h0.1l1.6,1.2l0,10.2l-0.5,4.4c0.4-0.4,0.9-0.7,1.5-1.1
			c0.6-0.4,1.3-0.8,2.1-1.1s1.6-0.6,2.6-0.8c1-0.2,2-0.3,3.1-0.3c1.6,0,2.9,0.2,3.9,0.6c1,0.4,1.8,1.1,2.4,1.9
			c0.6,0.9,1,1.9,1.3,3.2c0.2,1.3,0.4,2.8,0.4,4.5v13l2.8,0.5v3.5h-14.5v-3.5l2.3-0.5v-13c0-1,0-1.8-0.1-2.4
			c-0.1-0.7-0.2-1.2-0.5-1.6c-0.2-0.4-0.5-0.7-0.9-0.9c-0.4-0.2-0.9-0.3-1.5-0.3c-0.9,0-1.6,0.2-2.3,0.6c-0.7,0.4-1.2,0.8-1.7,1.3
			v16.3l2.4,0.5v3.5H118V52.1z"/>
	</g>
	<g>
		<path class="st0" d="M-185.5,163h3.4h8l1.6,5l36.8,0c0,0-4.2-54.6,0-84.9c4.2-30.3,7.6-59.2,7.6-59.2l-31.1-0.4
			c0,0-16.7,29.2-44.4,29.2l0,16.3c0,0,15.5,1.5,22-0.8s13.7-6.1,13.7-6.1L-192.9,168l1.5,0l1.6-5H-185.5z"/>
		<path class="st0" d="M-90.2,161.7c0.8-0.8,1.8-1.5,2.9-2c1.1-0.4,2.3-0.7,3.6-0.7c1.3,0,2.4,0.2,3.4,0.6c1.1,0.4,2,1,2.8,1.7
			c0.8,0.8,1.4,1.6,1.8,2.7c0.4,1,0.6,2,0.6,3c0,0.2,0,0.4,0,0.6l67.6,0l1.2-42.1c0,0-8.3,9.9-20.1,9.9c-11.8,0-20.9-4.6-20.9-4.6
			s5.3-4.9,21.6-21.2s11.8-44.7,11.8-44.7s-0.5-5.3-3.6-11.9l-29.3,29.3c-3.8,5.8-12.2,13.5-31.2,25.8c-36,23.5-34.1,59.5-34.1,59.5
			l19.6,0c0-1.1,0.2-2.1,0.6-3.1C-91.5,163.5-90.9,162.6-90.2,161.7z"/>
	</g>
	<g>
		<path class="st0" d="M-200.9,199.9l2.8-0.6l10.7-33h10.8l10.7,33l2.6,0.6v3.7h-17.1v-3.7l3.3-0.6l-1.4-5.3h-10.7l-1.4,5.4l3.7,0.4
			v3.7h-14.1L-200.9,199.9z M-179.5,189.8l-3.8-14.2l-0.5-3l-0.6,3l-3.6,14.2H-179.5z"/>
		<path class="st0" d="M-161.7,200.1l2.5-0.5v-17.1l-2.7-0.9v-4.6l10.1-1.2h0.1l1.5,1.2v1.6l0,1.1c0.5-0.5,1.1-1,1.8-1.4
			c0.7-0.5,1.5-0.9,2.3-1.2c0.8-0.4,1.7-0.6,2.7-0.8s2-0.3,3.1-0.3c1.4,0,2.7,0.2,3.7,0.5c1,0.4,1.9,1,2.5,1.8
			c0.7,0.8,1.1,1.9,1.4,3.3c0.3,1.3,0.5,3,0.5,5v13.2l2.4,0.5v3.7h-14.5v-3.6l2.1-0.5v-13.2c0-1,0-1.9-0.1-2.6s-0.3-1.2-0.5-1.6
			s-0.6-0.7-0.9-0.9s-0.9-0.3-1.5-0.3c-0.5,0-0.9,0.1-1.3,0.2s-0.8,0.3-1.1,0.5s-0.6,0.4-0.9,0.6s-0.5,0.4-0.7,0.6v16.6l2.4,0.5v3.6
			h-14.9V200.1z"/>
		<path class="st0" d="M-126.3,200.1l2.5-0.5v-17.1l-2.7-0.9v-4.6l10.1-1.2h0.1l1.5,1.2v1.6l0,1.1c0.5-0.5,1.1-1,1.8-1.4
			c0.7-0.5,1.5-0.9,2.3-1.2s1.7-0.6,2.7-0.8c1-0.2,2-0.3,3.1-0.3c1.4,0,2.7,0.2,3.7,0.5c1,0.4,1.9,1,2.5,1.8
			c0.7,0.8,1.1,1.9,1.4,3.3c0.3,1.3,0.5,3,0.5,5v13.2l2.4,0.5v3.7h-14.5v-3.6l2.1-0.5v-13.2c0-1,0-1.9-0.1-2.6
			c-0.1-0.7-0.3-1.2-0.5-1.6c-0.2-0.4-0.6-0.7-0.9-0.9s-0.9-0.3-1.5-0.3c-0.5,0-0.9,0.1-1.3,0.2c-0.4,0.1-0.8,0.3-1.1,0.5
			s-0.6,0.4-0.9,0.6c-0.3,0.2-0.5,0.4-0.7,0.6v16.6l2.4,0.5v3.6h-14.9V200.1z"/>
		<path class="st0" d="M-91.3,199.9l2.7-0.5v-17.7l-3.2-1v-4.3l11.2-1.3h0.1l1.7,1.2v23.2l2.6,0.5v3.7h-15.1V199.9z M-86.2,172.1
			c-0.6-0.2-1.1-0.5-1.6-1c-0.4-0.4-0.8-0.9-1-1.4c-0.2-0.6-0.4-1.2-0.4-1.8c0-0.8,0.1-1.5,0.4-2.1s0.6-1.2,1.1-1.7
			c0.5-0.5,1-0.9,1.7-1.2c0.7-0.3,1.4-0.4,2.3-0.4h0c0.8,0,1.6,0.1,2.2,0.4c0.6,0.2,1.2,0.6,1.6,1c0.4,0.4,0.8,0.9,1,1.5
			c0.2,0.6,0.3,1.2,0.3,1.8c0,0.8-0.1,1.5-0.4,2.1c-0.2,0.7-0.6,1.2-1.1,1.7s-1.1,0.9-1.8,1.1c-0.7,0.3-1.6,0.4-2.5,0.4h0
			C-84.9,172.4-85.6,172.3-86.2,172.1z"/>
		<path class="st0" d="M-73.7,180l-1.8-0.6v-3.6H-60v3.6l-2.9,0.6l-0.6,3h4.8l4.5,0.2l0.4-3.3l-2.9-0.6v-3.6h12.4v3.6l-2.7,0.6
			l-8.9,23.7h-7.9L-73.7,180z"/>
		<path class="st0" d="M-44.7,189.8c0-2.3,0.3-4.3,1-6.1c0.7-1.8,1.6-3.2,2.8-4.4s2.7-2.1,4.4-2.7c1.7-0.6,3.7-0.9,5.8-0.9
			c1.9,0,3.5,0.2,4.9,0.7c1.4,0.4,2.6,1.1,3.5,1.9s1.7,1.8,2.1,3c0.5,1.2,0.7,2.5,0.8,4c0,1.1,0,2-0.1,2.8c-0.1,0.8-0.2,1.5-0.3,2.1
			h-15c0.2,2.6,0.9,4.6,2,5.8c1.1,1.2,2.6,1.8,4.6,1.8c0.6,0,1.3-0.1,1.9-0.2c0.7-0.1,1.3-0.3,1.9-0.5c0.6-0.2,1.2-0.4,1.7-0.6
			c0.5-0.2,1-0.4,1.4-0.6l1.6,3.5c-0.3,0.4-0.9,0.8-1.6,1.3s-1.6,1-2.6,1.4c-1,0.4-2.1,0.8-3.3,1.1c-1.2,0.3-2.4,0.5-3.7,0.5
			c-2.5,0-4.7-0.3-6.5-1c-1.8-0.7-3.2-1.6-4.3-2.9c-1.1-1.2-1.9-2.7-2.4-4.4C-44.5,193.7-44.7,191.9-44.7,189.8z M-28.5,186.6
			c0-0.1,0-0.2,0-0.4c0-0.2,0-0.3,0-0.5c0-0.2,0-0.3,0-0.5c0-0.2,0-0.3,0-0.4c0-0.8,0-1.6-0.1-2.2s-0.2-1.2-0.4-1.6
			c-0.2-0.5-0.5-0.8-0.9-1s-0.8-0.4-1.4-0.4c-0.5,0-1,0.1-1.4,0.2c-0.4,0.2-0.8,0.5-1.1,1c-0.3,0.5-0.6,1.2-0.7,2.1
			c-0.2,0.9-0.3,2.1-0.3,3.6H-28.5z"/>
		<path class="st0" d="M-16,200.1l2.7-0.5v-17.3l-2.7-0.9V177l9-1.2h0.1l1.6,1.1v1.3l-0.2,4.2h0.2c0.1-0.6,0.5-1.3,0.9-2.1
			s1.1-1.5,1.9-2.2s1.6-1.2,2.6-1.7s2-0.7,3.2-0.7c0.5,0,1,0,1.3,0.1s0.7,0.2,0.8,0.3v10c-0.2-0.2-0.5-0.4-0.8-0.6
			c-0.3-0.2-0.6-0.4-1-0.5c-0.4-0.2-0.8-0.3-1.3-0.4c-0.5-0.1-1-0.1-1.7-0.1c-1,0-2,0.1-2.8,0.3c-0.8,0.2-1.4,0.5-1.7,0.7v13.8
			l5.1,0.5v3.6H-16V200.1z"/>
		<path class="st0" d="M8.7,194.9h5.5l1.4,4c0.1,0.1,0.3,0.3,0.5,0.4c0.2,0.1,0.5,0.3,0.9,0.4s0.7,0.2,1.1,0.3
			c0.4,0.1,0.8,0.1,1.1,0.1c0.6,0,1.1-0.1,1.5-0.2s0.8-0.3,1.1-0.5s0.5-0.5,0.7-0.8c0.2-0.3,0.2-0.6,0.2-1c0-0.6-0.2-1.1-0.7-1.6
			c-0.4-0.4-1-0.8-1.8-1.2s-1.6-0.8-2.6-1.2s-2-0.8-3-1.4c-0.9-0.4-1.8-0.9-2.5-1.5c-0.8-0.5-1.4-1.2-1.9-1.8
			c-0.5-0.7-0.9-1.4-1.2-2.3c-0.3-0.8-0.4-1.8-0.4-2.8c0-1.1,0.3-2.1,0.8-3.1c0.5-1,1.3-1.8,2.2-2.6c1-0.7,2.2-1.3,3.7-1.7
			c1.5-0.4,3.2-0.6,5.1-0.6c1.4,0,2.6,0,3.7,0s2,0.1,2.8,0.1c0.8,0,1.5,0.1,2.1,0.1c0.6,0,1.2,0,1.7,0v7.1h-5.2l-1.4-3
			c-0.1-0.2-0.4-0.4-1-0.6s-1.2-0.3-1.9-0.3c-1.1,0-2,0.2-2.6,0.7c-0.6,0.5-0.9,1.1-0.9,1.9c0,0.6,0.2,1,0.5,1.5s0.8,0.8,1.4,1.2
			c0.6,0.4,1.2,0.7,2,1c0.8,0.3,1.5,0.6,2.3,1c1,0.4,2.1,0.9,3.1,1.4c1,0.5,2,1.1,2.8,1.8c0.8,0.7,1.5,1.5,2,2.4
			c0.5,0.9,0.8,2,0.8,3.3c0,1.1-0.2,2.1-0.7,3.1c-0.4,1-1.1,1.9-2.1,2.6c-1,0.8-2.2,1.4-3.8,1.8c-1.5,0.5-3.4,0.7-5.6,0.7
			c-1.5,0-2.9-0.1-4.1-0.3c-1.2-0.2-2.3-0.4-3.2-0.6s-1.8-0.4-2.4-0.7c-0.7-0.2-1.3-0.4-1.8-0.4V194.9z"/>
		<path class="st0" d="M34.6,195c0-1.4,0.3-2.7,1-3.9c0.7-1.2,1.6-2.1,3-2.9s3-1.4,5-1.9c2-0.4,4.4-0.7,7.1-0.7v-0.6
			c0-0.5-0.1-1-0.2-1.4c-0.1-0.4-0.3-0.7-0.6-1c-0.3-0.3-0.8-0.5-1.4-0.6c-0.6-0.1-1.4-0.2-2.4-0.2c-1,0-1.9,0-2.8,0.1
			c-0.9,0.1-1.6,0.2-2.4,0.4c-0.7,0.1-1.3,0.3-1.9,0.5c-0.6,0.2-1,0.3-1.5,0.4h0l-1.9-3.7c0.3-0.3,0.9-0.6,1.7-1.1
			c0.8-0.4,1.7-0.9,2.9-1.3c1.1-0.4,2.4-0.8,3.8-1.1c1.4-0.3,2.9-0.5,4.6-0.5c2.1,0,3.9,0.2,5.3,0.6s2.5,1,3.4,1.8
			c0.8,0.8,1.4,1.8,1.8,3.1c0.4,1.3,0.5,2.8,0.5,4.5v13.6h2.4v3.6c-0.3,0.1-0.8,0.1-1.3,0.2c-0.6,0.1-1.2,0.2-1.9,0.2
			c-0.7,0.1-1.4,0.1-2.2,0.2c-0.7,0.1-1.4,0.1-2,0.1c-0.7,0-1.3-0.1-1.8-0.2c-0.5-0.1-0.8-0.3-1.1-0.5c-0.3-0.2-0.4-0.5-0.5-0.9
			c-0.1-0.4-0.1-0.9-0.1-1.4v-0.9c-0.3,0.5-0.7,0.9-1.2,1.4s-1.1,0.9-1.8,1.3c-0.7,0.4-1.4,0.7-2.3,0.9c-0.8,0.2-1.8,0.3-2.8,0.3
			c-1.2,0-2.3-0.2-3.3-0.6c-1-0.4-1.9-1-2.7-1.7s-1.4-1.6-1.8-2.7S34.6,196.4,34.6,195z M44.7,193.9c0,0.7,0.1,1.3,0.2,1.8
			s0.3,1,0.6,1.4s0.6,0.7,1,0.9c0.4,0.2,0.8,0.3,1.3,0.3c0.5,0,1-0.1,1.5-0.4c0.5-0.3,1-0.6,1.3-1v-7.7c-1.1,0-2.1,0.1-2.9,0.4
			c-0.8,0.3-1.4,0.6-1.8,1c-0.5,0.4-0.8,0.9-1,1.5C44.8,192.8,44.7,193.3,44.7,193.9z"/>
		<path class="st0" d="M72.6,203.7L63.3,180l-2.1-0.6v-3.6h16.1v3.6L74,180l2.9,5l1.2-4l2.6-0.4l-0.2-0.8l-0.2-0.5v-3.6h11.9v3.6
			L90,180c-0.3,0.8-0.6,1.7-1,2.8c-0.4,1.1-0.8,2.3-1.2,3.5c-0.4,1.3-0.9,2.6-1.4,3.9c-0.5,1.3-0.9,2.7-1.4,3.9
			c-0.5,1.3-0.9,2.5-1.3,3.7c-0.4,1.2-0.8,2.2-1.1,3.1c-0.3,0.9-0.6,1.6-0.8,2.2c-0.2,0.6-0.3,0.9-0.3,0.9c-0.7,1.9-1.4,3.6-2.2,5.1
			c-0.8,1.5-1.6,2.7-2.5,3.7s-2,1.8-3.1,2.3c-1.2,0.5-2.5,0.8-4,0.8c-0.4,0-0.7,0-1.2,0s-0.8,0-1.2-0.1c-0.4,0-0.8-0.1-1.1-0.2
			s-0.6-0.2-0.8-0.3v-6.9c0.1,0.1,0.4,0.2,0.7,0.3c0.3,0.1,0.7,0.2,1.1,0.2c0.4,0.1,0.8,0.1,1.2,0.2c0.4,0,0.8,0.1,1.1,0.1
			c1,0,1.8-0.2,2.5-0.5c0.7-0.3,1.3-0.7,1.7-1.2c0.5-0.5,0.9-1.1,1.2-1.8"/>
	</g>
</g>
<rect x="-165.5" y="47" class="st0" width="228" height="119"/>
<g>
	<g>
		<path class="st2" d="M126.3,144.2c-6.2,0-11-0.9-14.7-2.3c-13.8,1.4-30.3,2.3-49.9,2.3c-20.6,0-36.9,0-50.4,0
			C-22.3,156-48,166-48,166s-16.4-5.6-40.2-13.3v8.6c0.3-0.2,0.6-0.3,0.9-0.4c1.1-0.4,2.3-0.7,3.6-0.7c1.3,0,2.4,0.2,3.4,0.6
			c1.1,0.4,2,1,2.8,1.7c0.8,0.8,1.4,1.6,1.8,2.7c0.2,0.4,0.3,0.9,0.4,1.3C-35.2,167-45,168,40.5,168c119.8,0,124.6-26.5,124.6-26.5
			S148.7,144.2,126.3,144.2z"/>
		<path class="st2" d="M-24.9,152.6C-48.6,160.4-65,166-65,166s-25.7-10-59.2-21.8c-13.5,0-29.8,0-50.4,0c-19.7,0-36.1-0.8-49.9-2.3
			c-3.8,1.3-8.6,2.3-14.7,2.3c-22.5,0-38.8-2.7-38.8-2.7s3.7,20.7,87.3,25.5l1-3h4.4h3.4h8l1.2,3.8c6.1,0.2,12.5,0.3,19.3,0.3
			c30,0,48.3-0.1,61.1-0.3c0.1-0.7,0.3-1.4,0.5-2.1c0.4-1.1,1-2,1.8-2.9c0.8-0.8,1.8-1.5,2.9-2c1.1-0.4,2.3-0.7,3.6-0.7
			c1.3,0,2.4,0.2,3.4,0.6c1.1,0.4,2,1,2.8,1.7c0.8,0.8,1.4,1.6,1.8,2.7c0.3,0.7,0.5,1.5,0.5,2.3c13.6-0.4,22.3-0.8,50.2-1.1V152.6z"
			/>
	</g>
	<g>
		<path class="st3" d="M-48.6,29.4L-5,22.8L-17.5,54c0,0-11.3-2.8-19.1-10.7S-48.6,29.4-48.6,29.4z"/>
		<path class="st4" d="M8.1,87.7c0,0,3.4-14,3.4-28.4S5.4,36.8,5.4,36.8l78.1,0l3,19l-52.3,0l0,6.8c0,0,64.1-10.2,64.1,45.5
			s-50.8,60.3-50.8,60.3l-31.1,0l0-43.2c0,0,31.5,9.5,37.2-15.5S31.8,64,8.1,87.7z"/>
		<g>
			<path class="st4" d="M-64.7,27.6c-47,0-47,35.3-47,35.3c0,43.6,39.4,25,39.4,25s-9.5-9.1-9.5-20.1c0-7.4,3.8-12.3,9.5-14.8
				l23.6-23.6C-53.3,28.3-58.7,27.6-64.7,27.6z"/>
			<path class="st5" d="M-48.6,29.4L-72.3,53c2.8-1.2,6.2-1.8,9.8-1.8c11,0,18.6,9.1,18.6,18.6c0,4.5,0.4,8.3-3,13.6L-17.5,54
				C-21.6,45-30.4,33.7-48.6,29.4z M-44.4,49.6c-3.2,0-5.9-2.6-5.9-5.9c0-3.2,2.6-5.9,5.9-5.9s5.9,2.6,5.9,5.9
				C-38.6,47-41.2,49.6-44.4,49.6z"/>
			<circle class="st6" cx="-44.4" cy="43.7" r="5.9"/>
		</g>
	</g>
	<g>
		<path class="st4" d="M99.9,33.9h-2.8v-3.1c0.3-0.1,0.6-0.3,0.8-0.4c0.2-0.1,0.5-0.2,0.8-0.3c0.3-0.1,0.5-0.2,0.8-0.3
			s0.5-0.2,0.8-0.4c0.3-0.3,0.6-0.7,0.9-1.2s0.6-1,0.8-1.7c0.3-0.7,0.6-1.4,0.9-2.2c0.3-0.8,0.5-1.7,0.8-2.7h5.4l0.4,7.9h6.4v4.5
			h-6.3v11.8c0,1.2,0,2.2,0.1,2.9s0.1,1.2,0.3,1.6c0.1,0.4,0.3,0.6,0.6,0.7c0.3,0.1,0.6,0.1,1.1,0.1h0c0.8,0,1.5-0.1,2.1-0.2
			c0.6-0.1,1.2-0.3,1.7-0.4h0l1.2,3.4c-0.5,0.4-1,0.7-1.7,1.1c-0.7,0.3-1.5,0.6-2.3,0.9s-1.8,0.5-2.8,0.6s-2,0.2-3.1,0.2h0
			c-2.3,0-4-0.5-5.1-1.6c-1.1-1.1-1.6-2.6-1.6-4.6V33.9z"/>
		<path class="st4" d="M118,53.1l2.4-0.5V22.4l-3.2-0.7v-3.4L128,17h0.1l1.6,1.2l0,10.2l-0.5,4.4c0.4-0.4,0.9-0.7,1.5-1.1
			c0.6-0.4,1.3-0.8,2.1-1.1s1.6-0.6,2.6-0.8c1-0.2,2-0.3,3.1-0.3c1.6,0,2.9,0.2,3.9,0.6c1,0.4,1.8,1.1,2.4,1.9
			c0.6,0.9,1,1.9,1.3,3.2c0.2,1.3,0.4,2.8,0.4,4.5v13l2.8,0.5v3.5h-14.5v-3.5l2.3-0.5v-13c0-1,0-1.8-0.1-2.4
			c-0.1-0.7-0.2-1.2-0.5-1.6c-0.2-0.4-0.5-0.7-0.9-0.9c-0.4-0.2-0.9-0.3-1.5-0.3c-0.9,0-1.6,0.2-2.3,0.6c-0.7,0.4-1.2,0.8-1.7,1.3
			v16.3l2.4,0.5v3.5H118V53.1z"/>
	</g>
	<g>
		<path class="st4" d="M-185.5,164h3.4h8l1.6,5l36.8,0c0,0-4.2-54.6,0-84.9c4.2-30.3,7.6-59.2,7.6-59.2l-31.1-0.4
			c0,0-16.7,29.2-44.4,29.2l0,16.3c0,0,15.5,1.5,22-0.8s13.7-6.1,13.7-6.1L-192.9,169l1.5,0l1.6-5H-185.5z"/>
		<path class="st4" d="M-90.2,162.7c0.8-0.8,1.8-1.5,2.9-2c1.1-0.4,2.3-0.7,3.6-0.7c1.3,0,2.4,0.2,3.4,0.6c1.1,0.4,2,1,2.8,1.7
			c0.8,0.8,1.4,1.6,1.8,2.7c0.4,1,0.6,2,0.6,3c0,0.2,0,0.4,0,0.6l67.6,0l1.2-42.1c0,0-8.3,9.9-20.1,9.9c-11.8,0-20.9-4.6-20.9-4.6
			s5.3-4.9,21.6-21.2s11.8-44.7,11.8-44.7s-0.5-5.3-3.6-11.9l-29.3,29.3c-3.8,5.8-12.2,13.5-31.2,25.8c-36,23.5-34.1,59.5-34.1,59.5
			l19.6,0c0-1.1,0.2-2.1,0.6-3.1C-91.5,164.5-90.9,163.6-90.2,162.7z"/>
	</g>
	<g>
		<path class="st5" d="M-200.9,200.9l2.8-0.6l10.7-33h10.8l10.7,33l2.6,0.6v3.7h-17.1v-3.7l3.3-0.6l-1.4-5.3h-10.7l-1.4,5.4l3.7,0.4
			v3.7h-14.1L-200.9,200.9z M-179.5,190.8l-3.8-14.2l-0.5-3l-0.6,3l-3.6,14.2H-179.5z"/>
		<path class="st5" d="M-161.7,201.1l2.5-0.5v-17.1l-2.7-0.9v-4.6l10.1-1.2h0.1l1.5,1.2v1.6l0,1.1c0.5-0.5,1.1-1,1.8-1.4
			c0.7-0.5,1.5-0.9,2.3-1.2c0.8-0.4,1.7-0.6,2.7-0.8s2-0.3,3.1-0.3c1.4,0,2.7,0.2,3.7,0.5c1,0.4,1.9,1,2.5,1.8
			c0.7,0.8,1.1,1.9,1.4,3.3c0.3,1.3,0.5,3,0.5,5v13.2l2.4,0.5v3.7h-14.5v-3.6l2.1-0.5v-13.2c0-1,0-1.9-0.1-2.6s-0.3-1.2-0.5-1.6
			s-0.6-0.7-0.9-0.9s-0.9-0.3-1.5-0.3c-0.5,0-0.9,0.1-1.3,0.2s-0.8,0.3-1.1,0.5s-0.6,0.4-0.9,0.6s-0.5,0.4-0.7,0.6v16.6l2.4,0.5v3.6
			h-14.9V201.1z"/>
		<path class="st5" d="M-126.3,201.1l2.5-0.5v-17.1l-2.7-0.9v-4.6l10.1-1.2h0.1l1.5,1.2v1.6l0,1.1c0.5-0.5,1.1-1,1.8-1.4
			c0.7-0.5,1.5-0.9,2.3-1.2s1.7-0.6,2.7-0.8c1-0.2,2-0.3,3.1-0.3c1.4,0,2.7,0.2,3.7,0.5c1,0.4,1.9,1,2.5,1.8
			c0.7,0.8,1.1,1.9,1.4,3.3c0.3,1.3,0.5,3,0.5,5v13.2l2.4,0.5v3.7h-14.5v-3.6l2.1-0.5v-13.2c0-1,0-1.9-0.1-2.6
			c-0.1-0.7-0.3-1.2-0.5-1.6c-0.2-0.4-0.6-0.7-0.9-0.9s-0.9-0.3-1.5-0.3c-0.5,0-0.9,0.1-1.3,0.2c-0.4,0.1-0.8,0.3-1.1,0.5
			s-0.6,0.4-0.9,0.6c-0.3,0.2-0.5,0.4-0.7,0.6v16.6l2.4,0.5v3.6h-14.9V201.1z"/>
		<path class="st5" d="M-91.3,200.9l2.7-0.5v-17.7l-3.2-1v-4.3l11.2-1.3h0.1l1.7,1.2v23.2l2.6,0.5v3.7h-15.1V200.9z M-86.2,173.1
			c-0.6-0.2-1.1-0.5-1.6-1c-0.4-0.4-0.8-0.9-1-1.4c-0.2-0.6-0.4-1.2-0.4-1.8c0-0.8,0.1-1.5,0.4-2.1s0.6-1.2,1.1-1.7
			c0.5-0.5,1-0.9,1.7-1.2c0.7-0.3,1.4-0.4,2.3-0.4h0c0.8,0,1.6,0.1,2.2,0.4c0.6,0.2,1.2,0.6,1.6,1c0.4,0.4,0.8,0.9,1,1.5
			c0.2,0.6,0.3,1.2,0.3,1.8c0,0.8-0.1,1.5-0.4,2.1c-0.2,0.7-0.6,1.2-1.1,1.7s-1.1,0.9-1.8,1.1c-0.7,0.3-1.6,0.4-2.5,0.4h0
			C-84.9,173.4-85.6,173.3-86.2,173.1z"/>
		<path class="st5" d="M-73.7,181l-1.8-0.6v-3.6H-60v3.6l-2.9,0.6l3.8,12.4l0.8,3.6l0.7-3.6l3.7-12.4l-2.9-0.6v-3.6h12.4v3.6
			l-2.7,0.6l-8.9,23.7h-7.9L-73.7,181z"/>
		<path class="st5" d="M-44.7,190.8c0-2.3,0.3-4.3,1-6.1c0.7-1.8,1.6-3.2,2.8-4.4s2.7-2.1,4.4-2.7c1.7-0.6,3.7-0.9,5.8-0.9
			c1.9,0,3.5,0.2,4.9,0.7c1.4,0.4,2.6,1.1,3.5,1.9s1.7,1.8,2.1,3c0.5,1.2,0.7,2.5,0.8,4c0,1.1,0,2-0.1,2.8c-0.1,0.8-0.2,1.5-0.3,2.1
			h-15c0.2,2.6,0.9,4.6,2,5.8c1.1,1.2,2.6,1.8,4.6,1.8c0.6,0,1.3-0.1,1.9-0.2c0.7-0.1,1.3-0.3,1.9-0.5c0.6-0.2,1.2-0.4,1.7-0.6
			c0.5-0.2,1-0.4,1.4-0.6l1.6,3.5c-0.3,0.4-0.9,0.8-1.6,1.3s-1.6,1-2.6,1.4c-1,0.4-2.1,0.8-3.3,1.1c-1.2,0.3-2.4,0.5-3.7,0.5
			c-2.5,0-4.7-0.3-6.5-1c-1.8-0.7-3.2-1.6-4.3-2.9c-1.1-1.2-1.9-2.7-2.4-4.4C-44.5,194.7-44.7,192.9-44.7,190.8z M-28.5,187.6
			c0-0.1,0-0.2,0-0.4c0-0.2,0-0.3,0-0.5c0-0.2,0-0.3,0-0.5c0-0.2,0-0.3,0-0.4c0-0.8,0-1.6-0.1-2.2s-0.2-1.2-0.4-1.6
			c-0.2-0.5-0.5-0.8-0.9-1s-0.8-0.4-1.4-0.4c-0.5,0-1,0.1-1.4,0.2c-0.4,0.2-0.8,0.5-1.1,1c-0.3,0.5-0.6,1.2-0.7,2.1
			c-0.2,0.9-0.3,2.1-0.3,3.6H-28.5z"/>
		<path class="st5" d="M-16,201.1l2.7-0.5v-17.3l-2.7-0.9V178l9-1.2h0.1l1.6,1.1v1.3l-0.2,4.2h0.2c0.1-0.6,0.5-1.3,0.9-2.1
			s1.1-1.5,1.9-2.2s1.6-1.2,2.6-1.7s2-0.7,3.2-0.7c0.5,0,1,0,1.3,0.1s0.7,0.2,0.8,0.3v10c-0.2-0.2-0.5-0.4-0.8-0.6
			c-0.3-0.2-0.6-0.4-1-0.5c-0.4-0.2-0.8-0.3-1.3-0.4c-0.5-0.1-1-0.1-1.7-0.1c-1,0-2,0.1-2.8,0.3c-0.8,0.2-1.4,0.5-1.7,0.7v13.8
			l5.1,0.5v3.6H-16V201.1z"/>
		<path class="st5" d="M8.7,195.9h5.5l1.4,4c0.1,0.1,0.3,0.3,0.5,0.4c0.2,0.1,0.5,0.3,0.9,0.4s0.7,0.2,1.1,0.3
			c0.4,0.1,0.8,0.1,1.1,0.1c0.6,0,1.1-0.1,1.5-0.2s0.8-0.3,1.1-0.5s0.5-0.5,0.7-0.8c0.2-0.3,0.2-0.6,0.2-1c0-0.6-0.2-1.1-0.7-1.6
			c-0.4-0.4-1-0.8-1.8-1.2s-1.6-0.8-2.6-1.2s-2-0.8-3-1.4c-0.9-0.4-1.8-0.9-2.5-1.5c-0.8-0.5-1.4-1.2-1.9-1.8
			c-0.5-0.7-0.9-1.4-1.2-2.3c-0.3-0.8-0.4-1.8-0.4-2.8c0-1.1,0.3-2.1,0.8-3.1c0.5-1,1.3-1.8,2.2-2.6c1-0.7,2.2-1.3,3.7-1.7
			c1.5-0.4,3.2-0.6,5.1-0.6c1.4,0,2.6,0,3.7,0s2,0.1,2.8,0.1c0.8,0,1.5,0.1,2.1,0.1c0.6,0,1.2,0,1.7,0v7.1h-5.2l-1.4-3
			c-0.1-0.2-0.4-0.4-1-0.6s-1.2-0.3-1.9-0.3c-1.1,0-2,0.2-2.6,0.7c-0.6,0.5-0.9,1.1-0.9,1.9c0,0.6,0.2,1,0.5,1.5s0.8,0.8,1.4,1.2
			c0.6,0.4,1.2,0.7,2,1c0.8,0.3,1.5,0.6,2.3,1c1,0.4,2.1,0.9,3.1,1.4c1,0.5,2,1.1,2.8,1.8c0.8,0.7,1.5,1.5,2,2.4
			c0.5,0.9,0.8,2,0.8,3.3c0,1.1-0.2,2.1-0.7,3.1c-0.4,1-1.1,1.9-2.1,2.6c-1,0.8-2.2,1.4-3.8,1.8c-1.5,0.5-3.4,0.7-5.6,0.7
			c-1.5,0-2.9-0.1-4.1-0.3c-1.2-0.2-2.3-0.4-3.2-0.6s-1.8-0.4-2.4-0.7c-0.7-0.2-1.3-0.4-1.8-0.4V195.9z"/>
		<path class="st5" d="M34.6,196c0-1.4,0.3-2.7,1-3.9c0.7-1.2,1.6-2.1,3-2.9s3-1.4,5-1.9c2-0.4,4.4-0.7,7.1-0.7v-0.6
			c0-0.5-0.1-1-0.2-1.4c-0.1-0.4-0.3-0.7-0.6-1c-0.3-0.3-0.8-0.5-1.4-0.6c-0.6-0.1-1.4-0.2-2.4-0.2c-1,0-1.9,0-2.8,0.1
			c-0.9,0.1-1.6,0.2-2.4,0.4c-0.7,0.1-1.3,0.3-1.9,0.5c-0.6,0.2-1,0.3-1.5,0.4h0l-1.9-3.7c0.3-0.3,0.9-0.6,1.7-1.1
			c0.8-0.4,1.7-0.9,2.9-1.3c1.1-0.4,2.4-0.8,3.8-1.1c1.4-0.3,2.9-0.5,4.6-0.5c2.1,0,3.9,0.2,5.3,0.6s2.5,1,3.4,1.8
			c0.8,0.8,1.4,1.8,1.8,3.1c0.4,1.3,0.5,2.8,0.5,4.5v13.6h2.4v3.6c-0.3,0.1-0.8,0.1-1.3,0.2c-0.6,0.1-1.2,0.2-1.9,0.2
			c-0.7,0.1-1.4,0.1-2.2,0.2c-0.7,0.1-1.4,0.1-2,0.1c-0.7,0-1.3-0.1-1.8-0.2c-0.5-0.1-0.8-0.3-1.1-0.5c-0.3-0.2-0.4-0.5-0.5-0.9
			c-0.1-0.4-0.1-0.9-0.1-1.4v-0.9c-0.3,0.5-0.7,0.9-1.2,1.4s-1.1,0.9-1.8,1.3c-0.7,0.4-1.4,0.7-2.3,0.9c-0.8,0.2-1.8,0.3-2.8,0.3
			c-1.2,0-2.3-0.2-3.3-0.6c-1-0.4-1.9-1-2.7-1.7s-1.4-1.6-1.8-2.7S34.6,197.4,34.6,196z M44.7,194.9c0,0.7,0.1,1.3,0.2,1.8
			s0.3,1,0.6,1.4s0.6,0.7,1,0.9c0.4,0.2,0.8,0.3,1.3,0.3c0.5,0,1-0.1,1.5-0.4c0.5-0.3,1-0.6,1.3-1v-7.7c-1.1,0-2.1,0.1-2.9,0.4
			c-0.8,0.3-1.4,0.6-1.8,1c-0.5,0.4-0.8,0.9-1,1.5C44.8,193.8,44.7,194.3,44.7,194.9z"/>
		<path class="st5" d="M66.1,209.7c0.3,0.1,0.7,0.2,1.1,0.2c0.4,0.1,0.8,0.1,1.2,0.2c0.4,0,0.8,0.1,1.1,0.1c1,0,1.8-0.2,2.5-0.5
			c0.7-0.3,1.3-0.7,1.7-1.2c0.5-0.5,0.9-1.1,1.2-1.8c0.3-0.7,0.6-1.4,0.9-2.1h-3.2L63.3,181l-2.1-0.6v-3.6h16.1v3.6L74,181l3.8,12.6
			l1.1,4l0.8-4l3.5-12.7l-2.9-0.6v-3.6h11.9v3.6L90,181c-0.3,0.8-0.6,1.7-1,2.8c-0.4,1.1-0.8,2.3-1.2,3.5c-0.4,1.3-0.9,2.6-1.4,3.9
			c-0.5,1.3-0.9,2.7-1.4,3.9c-0.5,1.3-0.9,2.5-1.3,3.7c-0.4,1.2-0.8,2.2-1.1,3.1c-0.3,0.9-0.6,1.6-0.8,2.2c-0.2,0.6-0.3,0.9-0.3,0.9
			c-0.7,1.9-1.4,3.6-2.2,5.1c-0.8,1.5-1.6,2.7-2.5,3.7s-2,1.8-3.1,2.3c-1.2,0.5-2.5,0.8-4,0.8c-0.4,0-0.7,0-1.2,0s-0.8,0-1.2-0.1
			c-0.4,0-0.8-0.1-1.1-0.2s-0.6-0.2-0.8-0.3v-6.9C65.5,209.5,65.8,209.6,66.1,209.7z"/>
	</g>
</g>
<g>
	<path class="st7" d="M-150.6,4.4l3-0.3V-9.5h-2.4l-1.1,5.6h-2.6l0.4-7.6h16.2l0.3,7.6h-2.4l-1.2-5.6h-2.3V4.1l3.3,0.3v1.7h-11.2
		V4.4z"/>
	<path class="st7" d="M-135.5,4.4l1.2-0.2v-14.8l-1.6-0.4v-1.7l5.3-0.6h0.1l0.8,0.6l0,5l-0.2,2.2c0.2-0.2,0.5-0.4,0.7-0.6
		c0.3-0.2,0.6-0.4,1-0.5s0.8-0.3,1.3-0.4c0.5-0.1,1-0.2,1.5-0.2c0.8,0,1.4,0.1,1.9,0.3c0.5,0.2,0.9,0.5,1.2,0.9s0.5,0.9,0.6,1.6
		c0.1,0.6,0.2,1.4,0.2,2.2v6.3l1.4,0.2v1.7h-7.1V4.5l1.1-0.2v-6.3c0-0.5,0-0.9-0.1-1.2c0-0.3-0.1-0.6-0.2-0.8
		c-0.1-0.2-0.3-0.3-0.5-0.4c-0.2-0.1-0.4-0.1-0.7-0.1c-0.4,0-0.8,0.1-1.1,0.3c-0.3,0.2-0.6,0.4-0.8,0.6v7.9l1.2,0.2v1.7h-7.1V4.4z"
		/>
	<path class="st7" d="M-119.3-0.4c0-1.1,0.2-2.1,0.5-2.9s0.8-1.5,1.3-2.1c0.6-0.6,1.3-1,2.1-1.3c0.8-0.3,1.8-0.4,2.8-0.4
		c0.9,0,1.7,0.1,2.4,0.3c0.7,0.2,1.2,0.5,1.7,0.9c0.5,0.4,0.8,0.9,1,1.4c0.2,0.6,0.4,1.2,0.4,1.9c0,0.5,0,1-0.1,1.4s-0.1,0.7-0.2,1
		h-7.2c0.1,1.3,0.4,2.2,1,2.8c0.5,0.6,1.2,0.9,2.2,0.9c0.3,0,0.6,0,0.9-0.1c0.3-0.1,0.6-0.1,0.9-0.2s0.6-0.2,0.8-0.3
		s0.5-0.2,0.6-0.3l0.8,1.6c-0.2,0.2-0.4,0.4-0.8,0.6c-0.4,0.2-0.8,0.5-1.2,0.7c-0.5,0.2-1,0.4-1.6,0.5c-0.6,0.1-1.2,0.2-1.8,0.2
		c-1.2,0-2.2-0.2-3.1-0.5c-0.8-0.3-1.5-0.8-2.1-1.4c-0.5-0.6-0.9-1.3-1.1-2.1C-119.2,1.4-119.3,0.5-119.3-0.4z M-111.5-2
		c0,0,0-0.1,0-0.2s0-0.2,0-0.2c0-0.1,0-0.2,0-0.2s0-0.1,0-0.2c0-0.4,0-0.7-0.1-1s-0.1-0.6-0.2-0.8c-0.1-0.2-0.2-0.4-0.4-0.5
		c-0.2-0.1-0.4-0.2-0.7-0.2c-0.2,0-0.5,0-0.7,0.1c-0.2,0.1-0.4,0.2-0.5,0.5c-0.1,0.2-0.3,0.6-0.4,1s-0.1,1-0.1,1.7H-111.5z"/>
	<path class="st7" d="M-100,4.3l1.7-0.3V-9.3l-1.7-0.3v-2h4c0.4,0,0.8,0,1.1,0s0.7,0,1,0c0.3,0,0.7,0,1,0s0.7,0,1.1,0
		c1.5,0,2.7,0.2,3.8,0.5c1.1,0.4,2,0.9,2.8,1.6c0.7,0.7,1.3,1.5,1.7,2.6s0.5,2.2,0.5,3.5c0,1.4-0.2,2.6-0.6,3.8s-1,2.2-1.8,3.1
		s-1.7,1.5-2.9,2s-2.4,0.7-3.9,0.7c-0.3,0-0.7,0-1,0s-0.7,0-1.1,0c-0.3,0-0.7,0-1,0s-0.5,0-0.7,0h-4.1V4.3z M-93.4,4.1
		c0.2,0.1,0.4,0.1,0.6,0.2s0.5,0.1,0.8,0.1c0.6,0,1.1-0.1,1.6-0.4c0.5-0.3,0.9-0.7,1.2-1.2c0.3-0.6,0.6-1.3,0.7-2.2
		c0.2-0.9,0.3-2,0.3-3.2c0-1-0.1-1.9-0.2-2.8c-0.1-0.9-0.3-1.6-0.7-2.2c-0.3-0.6-0.7-1.1-1.2-1.5c-0.5-0.4-1.1-0.5-1.9-0.5
		c-0.4,0-0.7,0-0.9,0.1c-0.2,0.1-0.3,0.1-0.4,0.1V4.1z"/>
	<path class="st7" d="M-81.9,2c0-0.7,0.2-1.3,0.5-1.9c0.3-0.6,0.8-1,1.4-1.4c0.6-0.4,1.4-0.7,2.4-0.9c1-0.2,2.1-0.3,3.4-0.3v-0.3
		c0-0.3,0-0.5-0.1-0.7s-0.2-0.3-0.3-0.5c-0.2-0.1-0.4-0.2-0.7-0.3s-0.7-0.1-1.1-0.1c-0.5,0-0.9,0-1.3,0.1c-0.4,0-0.8,0.1-1.1,0.2
		c-0.3,0.1-0.6,0.1-0.9,0.2s-0.5,0.1-0.7,0.2h0l-0.9-1.7c0.2-0.1,0.4-0.3,0.8-0.5c0.4-0.2,0.8-0.4,1.4-0.6c0.5-0.2,1.1-0.4,1.8-0.5
		c0.7-0.1,1.4-0.2,2.2-0.2c1,0,1.9,0.1,2.5,0.3c0.7,0.2,1.2,0.5,1.6,0.8s0.7,0.9,0.9,1.5c0.2,0.6,0.3,1.3,0.3,2.2v6.5h1.2v1.7
		c-0.1,0-0.4,0.1-0.6,0.1C-69.6,6-70,6-70.3,6s-0.7,0.1-1,0.1s-0.7,0-0.9,0c-0.4,0-0.6,0-0.9-0.1C-73.3,6-73.5,6-73.6,5.9
		c-0.1-0.1-0.2-0.3-0.2-0.4s-0.1-0.4-0.1-0.7V4.3c-0.2,0.2-0.4,0.4-0.6,0.7s-0.5,0.4-0.8,0.6s-0.7,0.3-1.1,0.4s-0.8,0.2-1.3,0.2
		c-0.6,0-1.1-0.1-1.6-0.3c-0.5-0.2-0.9-0.5-1.3-0.8c-0.4-0.4-0.7-0.8-0.9-1.3C-81.8,3.3-81.9,2.7-81.9,2z M-77,1.5
		c0,0.3,0,0.6,0.1,0.9c0.1,0.3,0.2,0.5,0.3,0.7c0.1,0.2,0.3,0.3,0.5,0.5c0.2,0.1,0.4,0.2,0.6,0.2c0.2,0,0.5-0.1,0.7-0.2
		c0.3-0.1,0.5-0.3,0.6-0.5v-3.7c-0.5,0-1,0.1-1.4,0.2c-0.4,0.1-0.7,0.3-0.9,0.5c-0.2,0.2-0.4,0.4-0.5,0.7C-77,1-77,1.2-77,1.5z"/>
	<path class="st7" d="M-67.6,4.4l1.3-0.2v-8.5l-1.5-0.5v-2.1l5.3-0.6h0.1l0.8,0.5V4.2l1.2,0.2v1.8h-7.2V4.4z M-65.2-8.9
		C-65.5-9-65.8-9.2-66-9.4c-0.2-0.2-0.4-0.4-0.5-0.7c-0.1-0.3-0.2-0.5-0.2-0.9c0-0.4,0.1-0.7,0.2-1s0.3-0.6,0.5-0.8
		c0.2-0.2,0.5-0.4,0.8-0.5s0.7-0.2,1.1-0.2h0c0.4,0,0.8,0.1,1.1,0.2s0.6,0.3,0.8,0.5c0.2,0.2,0.4,0.4,0.5,0.7
		c0.1,0.3,0.2,0.5,0.2,0.9c0,0.4-0.1,0.7-0.2,1c-0.1,0.3-0.3,0.6-0.5,0.8c-0.2,0.2-0.5,0.4-0.9,0.5c-0.3,0.1-0.7,0.2-1.2,0.2h0
		C-64.6-8.7-64.9-8.8-65.2-8.9z"/>
	<path class="st7" d="M-59.2,4.4l1.3-0.2v-15l-1.6-0.4v-1.7l5.3-0.6h0.1l0.8,0.6v17l1.3,0.2v1.8h-7.2V4.4z"/>
	<path class="st7" d="M-49.7,8.6c0.2,0,0.3,0.1,0.5,0.1c0.2,0,0.4,0.1,0.6,0.1c0.2,0,0.4,0,0.5,0c0.5,0,0.9-0.1,1.2-0.2
		c0.3-0.1,0.6-0.3,0.8-0.6c0.2-0.2,0.4-0.5,0.6-0.8c0.2-0.3,0.3-0.7,0.5-1h-1.5L-51-5.1l-1-0.3v-1.7h7.7v1.7l-1.6,0.3l1.8,6l0.5,1.9
		l0.4-1.9l1.7-6l-1.4-0.3v-1.7h5.7v1.7l-1.1,0.3c-0.1,0.4-0.3,0.8-0.5,1.3c-0.2,0.5-0.4,1.1-0.6,1.7c-0.2,0.6-0.4,1.2-0.7,1.9
		c-0.2,0.6-0.4,1.3-0.7,1.9s-0.4,1.2-0.6,1.7c-0.2,0.6-0.4,1-0.5,1.5c-0.2,0.4-0.3,0.8-0.4,1s-0.1,0.4-0.2,0.4
		c-0.3,0.9-0.7,1.7-1,2.4s-0.8,1.3-1.2,1.8c-0.4,0.5-0.9,0.8-1.5,1.1c-0.5,0.2-1.2,0.4-1.9,0.4c-0.2,0-0.4,0-0.6,0
		c-0.2,0-0.4,0-0.6,0c-0.2,0-0.4-0.1-0.5-0.1c-0.2,0-0.3-0.1-0.4-0.1V8.4C-49.9,8.5-49.8,8.5-49.7,8.6z"/>
	<path class="st7" d="M-31.3-2.5c0-1.5,0.2-2.7,0.7-3.9s1.1-2.1,1.9-2.9C-28-10-27-10.6-25.9-11s2.3-0.6,3.6-0.6c0.6,0,1.2,0,1.8,0
		c0.6,0,1.1,0,1.6,0c0.5,0,1,0,1.4,0c0.4,0,0.7,0,1,0l-0.3,6.2h-3l-0.9-3.9c-0.1-0.1-0.1-0.1-0.2-0.2s-0.2-0.1-0.3-0.2
		c-0.1,0-0.3-0.1-0.5-0.1c-0.2,0-0.4,0-0.7,0c-0.5,0-1,0.1-1.4,0.4c-0.4,0.3-0.8,0.7-1.1,1.3c-0.3,0.6-0.5,1.3-0.7,2.1
		c-0.2,0.9-0.2,1.9-0.2,3c0,1.1,0.1,2.1,0.2,2.9c0.1,0.9,0.4,1.6,0.6,2.3c0.3,0.6,0.6,1.1,1.1,1.4c0.4,0.3,0.9,0.5,1.5,0.5
		c0.3,0,0.6,0,0.8-0.1c0.2,0,0.4-0.1,0.5-0.1c0.2-0.1,0.3-0.1,0.4-0.2c0.1-0.1,0.2-0.2,0.3-0.3l1.1-2.6l2.7,0.2L-17,5.3
		c-0.3,0-0.6,0.1-0.8,0.1c-0.3,0.1-0.5,0.1-0.8,0.2c-0.3,0.1-0.5,0.1-0.8,0.2C-19.7,5.9-20,5.9-20.3,6s-0.7,0.1-1.1,0.1
		s-0.9,0.1-1.4,0.1c-1.5,0-2.7-0.2-3.8-0.6c-1.1-0.4-2-1-2.7-1.8s-1.2-1.7-1.6-2.7C-31.2,0-31.3-1.2-31.3-2.5z"/>
	<path class="st7" d="M-15.5,2c0-0.7,0.2-1.3,0.5-1.9c0.3-0.6,0.8-1,1.4-1.4c0.6-0.4,1.4-0.7,2.4-0.9c1-0.2,2.1-0.3,3.4-0.3v-0.3
		c0-0.3,0-0.5-0.1-0.7S-8-3.7-8.1-3.9C-8.3-4-8.5-4.1-8.8-4.1s-0.7-0.1-1.1-0.1c-0.5,0-0.9,0-1.3,0.1C-11.7-4.1-12-4-12.4-4
		c-0.3,0.1-0.6,0.1-0.9,0.2s-0.5,0.1-0.7,0.2h0l-0.9-1.7c0.2-0.1,0.4-0.3,0.8-0.5c0.4-0.2,0.8-0.4,1.4-0.6c0.5-0.2,1.1-0.4,1.8-0.5
		c0.7-0.1,1.4-0.2,2.2-0.2c1,0,1.9,0.1,2.5,0.3C-5.5-6.7-5-6.4-4.6-6s0.7,0.9,0.9,1.5C-3.6-4-3.5-3.2-3.5-2.4v6.5h1.2v1.7
		c-0.1,0-0.4,0.1-0.6,0.1C-3.2,6-3.6,6-3.9,6s-0.7,0.1-1,0.1s-0.7,0-0.9,0c-0.4,0-0.6,0-0.9-0.1C-6.9,6-7.1,6-7.2,5.9
		c-0.1-0.1-0.2-0.3-0.2-0.4S-7.5,5-7.5,4.8V4.3C-7.7,4.5-7.9,4.8-8.1,5S-8.7,5.4-9,5.6S-9.7,5.9-10.1,6s-0.8,0.2-1.3,0.2
		c-0.6,0-1.1-0.1-1.6-0.3c-0.5-0.2-0.9-0.5-1.3-0.8c-0.4-0.4-0.7-0.8-0.9-1.3C-15.4,3.3-15.5,2.7-15.5,2z M-10.6,1.5
		c0,0.3,0,0.6,0.1,0.9c0.1,0.3,0.2,0.5,0.3,0.7c0.1,0.2,0.3,0.3,0.5,0.5c0.2,0.1,0.4,0.2,0.6,0.2c0.2,0,0.5-0.1,0.7-0.2
		C-8.1,3.4-7.9,3.2-7.8,3v-3.7c-0.5,0-1,0.1-1.4,0.2C-9.5-0.4-9.8-0.2-10,0c-0.2,0.2-0.4,0.4-0.5,0.7C-10.6,1-10.6,1.2-10.6,1.5z"/>
	<path class="st7" d="M-1.2,4.4l1.3-0.2V-4l-1.3-0.4v-2.1l4.3-0.6h0.1L4-6.6v0.6L3.9-4H4C4-4.3,4.2-4.6,4.4-5c0.2-0.4,0.5-0.7,0.9-1
		s0.8-0.6,1.2-0.8C7-7,7.5-7.1,8.1-7.1c0.2,0,0.5,0,0.6,0.1C8.9-7.1,9-7,9.1-6.9v4.8C9-2.2,8.9-2.3,8.7-2.4C8.6-2.5,8.4-2.6,8.3-2.7
		C8.1-2.7,7.9-2.8,7.7-2.8c-0.2,0-0.5-0.1-0.8-0.1c-0.5,0-0.9,0.1-1.3,0.2C5.1-2.6,4.9-2.5,4.7-2.4v6.6l2.4,0.2v1.7h-8.4V4.4z"/>
	<path class="st7" d="M15.4,6.2c-0.7,0-1.4-0.1-2-0.4c-0.6-0.2-1.2-0.6-1.6-1.1s-0.8-1.2-1.1-2S10.2,1,10.2-0.2
		c0-0.6,0.1-1.2,0.2-1.8c0.1-0.6,0.3-1.1,0.6-1.6s0.6-1,1-1.4c0.4-0.4,0.9-0.8,1.4-1.1c0.5-0.3,1.2-0.6,1.8-0.7
		c0.7-0.2,1.4-0.3,2.3-0.3c0.2,0,0.3,0,0.5,0c0.2,0,0.3,0.1,0.5,0.1v-3.5l-2.2-0.4v-1.8l5.8-0.5h0.1l0.8,0.7V4.2h1.2v1.7
		c-0.2,0-0.4,0.1-0.7,0.1C23.3,6,23,6,22.7,6.1c-0.3,0-0.6,0.1-0.9,0.1c-0.3,0-0.6,0-0.8,0c-0.3,0-0.6,0-0.8-0.1
		c-0.2,0-0.4-0.1-0.5-0.2s-0.3-0.2-0.3-0.4s-0.1-0.4-0.1-0.7V4.4c-0.2,0.3-0.4,0.5-0.7,0.8s-0.6,0.4-0.9,0.6c-0.3,0.2-0.7,0.3-1,0.4
		C16.1,6.1,15.7,6.2,15.4,6.2z M17,3.9c0.4,0,0.7-0.1,0.9-0.2c0.2-0.1,0.4-0.3,0.6-0.5v-8.1c-0.1-0.1-0.2-0.3-0.4-0.3
		c-0.2-0.1-0.4-0.1-0.7-0.1c-0.3,0-0.6,0.1-0.9,0.2c-0.3,0.2-0.5,0.4-0.7,0.8c-0.2,0.4-0.4,0.9-0.5,1.5c-0.1,0.6-0.2,1.4-0.2,2.3
		c0,0.8,0,1.4,0.1,2c0.1,0.6,0.2,1,0.4,1.4c0.2,0.4,0.4,0.6,0.6,0.8C16.5,3.8,16.7,3.9,17,3.9z"/>
	<path class="st7" d="M25.6,4.4L27,4.2v-8.5l-1.5-0.5v-2.1l5.3-0.6h0.1l0.8,0.5V4.2l1.2,0.2v1.8h-7.2V4.4z M28.1-8.9
		c-0.3-0.1-0.5-0.3-0.7-0.5C27.1-9.6,27-9.8,26.8-10c-0.1-0.3-0.2-0.5-0.2-0.9c0-0.4,0.1-0.7,0.2-1s0.3-0.6,0.5-0.8
		c0.2-0.2,0.5-0.4,0.8-0.5s0.7-0.2,1.1-0.2h0c0.4,0,0.8,0.1,1.1,0.2s0.6,0.3,0.8,0.5c0.2,0.2,0.4,0.4,0.5,0.7
		c0.1,0.3,0.2,0.5,0.2,0.9c0,0.4-0.1,0.7-0.2,1c-0.1,0.3-0.3,0.6-0.5,0.8c-0.2,0.2-0.5,0.4-0.9,0.5c-0.3,0.1-0.7,0.2-1.2,0.2h0
		C28.7-8.7,28.4-8.8,28.1-8.9z"/>
	<path class="st7" d="M34.5,4.4l1.2-0.2V-4l-1.3-0.4v-2.2l4.8-0.6h0.1l0.7,0.6v0.8l0,0.5c0.2-0.2,0.5-0.5,0.9-0.7s0.7-0.4,1.1-0.6
		s0.8-0.3,1.3-0.4c0.5-0.1,1-0.2,1.5-0.2c0.7,0,1.3,0.1,1.8,0.3s0.9,0.5,1.2,0.8c0.3,0.4,0.5,0.9,0.7,1.6c0.1,0.6,0.2,1.4,0.2,2.4
		v6.3l1.2,0.2v1.7h-6.9V4.4l1-0.2v-6.3c0-0.5,0-0.9-0.1-1.2c0-0.3-0.1-0.6-0.2-0.8s-0.3-0.3-0.5-0.4c-0.2-0.1-0.4-0.1-0.7-0.1
		c-0.2,0-0.4,0-0.6,0.1c-0.2,0.1-0.4,0.1-0.5,0.2c-0.2,0.1-0.3,0.2-0.4,0.3c-0.1,0.1-0.2,0.2-0.3,0.3v7.9l1.2,0.2v1.7h-7.1V4.4z"/>
	<path class="st7" d="M50.8,2c0-0.7,0.2-1.3,0.5-1.9c0.3-0.6,0.8-1,1.4-1.4c0.6-0.4,1.4-0.7,2.4-0.9c1-0.2,2.1-0.3,3.4-0.3v-0.3
		c0-0.3,0-0.5-0.1-0.7s-0.2-0.3-0.3-0.5C58-4,57.8-4.1,57.5-4.1s-0.7-0.1-1.1-0.1c-0.5,0-0.9,0-1.3,0.1c-0.4,0-0.8,0.1-1.1,0.2
		c-0.3,0.1-0.6,0.1-0.9,0.2s-0.5,0.1-0.7,0.2h0l-0.9-1.7c0.2-0.1,0.4-0.3,0.8-0.5C52.5-6,53-6.2,53.5-6.4c0.5-0.2,1.1-0.4,1.8-0.5
		c0.7-0.1,1.4-0.2,2.2-0.2c1,0,1.9,0.1,2.5,0.3c0.7,0.2,1.2,0.5,1.6,0.8s0.7,0.9,0.9,1.5c0.2,0.6,0.3,1.3,0.3,2.2v6.5H64v1.7
		c-0.1,0-0.4,0.1-0.6,0.1C63,6,62.7,6,62.4,6s-0.7,0.1-1,0.1s-0.7,0-0.9,0c-0.4,0-0.6,0-0.9-0.1C59.3,6,59.2,6,59,5.9
		c-0.1-0.1-0.2-0.3-0.2-0.4S58.7,5,58.7,4.8V4.3c-0.2,0.2-0.4,0.4-0.6,0.7s-0.5,0.4-0.8,0.6S56.6,5.9,56.2,6s-0.8,0.2-1.3,0.2
		c-0.6,0-1.1-0.1-1.6-0.3c-0.5-0.2-0.9-0.5-1.3-0.8c-0.4-0.4-0.7-0.8-0.9-1.3C50.9,3.3,50.8,2.7,50.8,2z M55.6,1.5
		c0,0.3,0,0.6,0.1,0.9c0.1,0.3,0.2,0.5,0.3,0.7c0.1,0.2,0.3,0.3,0.5,0.5c0.2,0.1,0.4,0.2,0.6,0.2c0.2,0,0.5-0.1,0.7-0.2
		c0.3-0.1,0.5-0.3,0.6-0.5v-3.7c-0.5,0-1,0.1-1.4,0.2c-0.4,0.1-0.7,0.3-0.9,0.5c-0.2,0.2-0.4,0.4-0.5,0.7C55.7,1,55.6,1.2,55.6,1.5z
		"/>
	<path class="st7" d="M64.7,4.4L66,4.1v-15l-1.6-0.4v-1.7l5.3-0.6h0.1l0.8,0.6v17l1.3,0.2v1.8h-7.2V4.4z"/>
</g>
</svg>
